<svg xmlns="http://www.w3.org/2000/svg" width="1500" height="1500" fill="none" viewBox="0 0 1500 1500"><path fill="#2D374B" d="M1243.6 739.9c10.8-25.1 8.2-81.2-17.8-120.2-42.5-64.5-84.9-130-128.4-194-26.9-39.8-53.9-80.6-80.8-120.4-4.2-6.3-8.5-12.6-14.7-17.8-11.6-9.5-27.5-13.4-43-12-15.6 1.4-31.1 6.3-46.2 10.3-3.3 0.9-6.6 2.7-9 4.7-5.3 4.3-5.9 9.3-1.1 15.1 28.3 34.5 56.5 68.9 84.8 103.3 49.5 60.4 99 120.9 148.4 181.3 6.7 8.2 15.7 14.5 21.6 24.7-91.9-0.9-181.8-0.8-273.7-1.1-42.7-0.1-85.4-0.5-128.1-1.2-39.1-0.6-79.7-3-117.7 3.8-13.8 2.5-27.1 7.5-39.2 13.2-13.4 6.3-25.8 13.9-36.6 23.6-21.9 19.4-36.3 43.2-47.7 68.7-24.2 54.4-37.4 114.6-56.3 171.5-0.5 1.6-1.1 3.2-1.4 4.9-0.8 3.8-0.6 4.8 3.2 2 6-4.4 12.8-7.7 19.5-10.8 0.9-0.5 1.8-0.9 2.7-1.2 2.4-0.8 3.1-0.7 2.7 1.9-0.1 0.8-0.3 1.6-0.5 2.4-11.3 42.7-22.5 85.5-33.8 128.2-4.6 17.7-9.8 35.2-14.9 52.7-21.4 72.2-41.8 144.9-39.3 222.2 0.2 8.3 0.8 16.5 1.5 24.8 0.6 7.5 4.7 14.9 11.9 18.6 5.2 2.6 11.4 3.4 17.3 3.3 54.5-0.1 211-141.4 245.4-182 55.2-65.1 93.8-145.4 103.6-231.3 7.9-70.2-9.3-145.3-57.3-198.2-14.9-16.5-32.3-30.9-51.7-42.2-11.6-6.8-23.9-12.6-36.8-16.5-7.7-2.3-15.9-4.5-24.1-5.1-17.4-1.2-35 0.9-52.3 1.7-23.2 1.1-44.9-7.5-67.7-11.4 63.9-0.9 128.2-0.4 191.4-1.7 45.8-0.9 91.5-1.9 137.3-1.9 37.7 0 75.4 1.3 113 0.4 13.6-0.3 27.1-0.6 40.4-2.5 9.3-1.3 18.5-3.3 27.5-5.8 6.8-1.8 13.7-4.3 20.3-6.8 4.3-1.5 8.6-3.4 12.8-5.2 11.4-5.2 24.2-13.6 36.3-22.1 0.4-0.3 0.8-0.5 1.2-0.8 1.7-1.3 3.5-1.5 4.2 0.5 0.3 0.8 0.5 1.6 0.6 2.5 1.2 14.8 2.3 29.6 3.7 44.3 1 10.3 2.9 20.7 6.7 30.3 0.5 1.3 0.9 2.6 1.4 3.9 1.8 5.5 3.5 5.4 8.7 2 4.7-3.1 9.5-6.2 14.5-9.4 18.8-12.2 36.5-26.5 55.2-38.9 7.3-4.8 11.9-12.4 15.4-20.2Z"/><path fill="#fff" d="M1158.9 818.9c-12.9-5.3-25.9-9.1-39.9-11.6-4.7-0.9-9.4-1.5-14.1-2.1-4.3-0.6-8.5-1.3-12.8-1.6-35.6-2.2-74-0.4-107.9 10.9-43.3 14.5-80.9 41.5-111.8 75.8-35.9 39.9-62.2 87.7-74.6 140-14.9 63.5-5.6 129.5 28.6 184.6 31.9 51.1 85.3 86.9 142.5 107.5 67.5 24.3 143 25.3 212.1 5.5 34.9-10 68.8-23.6 97.8-44.7 24-17.6 44.1-40.1 59.1-65.8 11.1-18.9 16.2-43.9 9.6-65.1-8.2-26.4-27.3-50.1-52.2-62.8-19.6-10-43.8-13.3-65.4-6.3-24.8 8-46.7 23.7-65.5 41.4-20.9 19.8-39.4 41.9-60.1 61.8-25.5 24.6-54.2 48.1-90.2 50.7-29.8 2.1-61.2-11.7-75.3-39.2-15.2-29.9-6.1-63.8 9.7-91.5 3-5.2 6.3-10.3 9.9-15.1 3.8-5.1 8-9.8 12.4-14.4 12.7-13.1 27.1-24.7 42.1-35.2 16.9-11.7 34.9-22.1 52.6-32.4 37.6-21.9 76-42.3 114.9-62.1 19.6-9.9 39.2-19.6 58.8-29.4 9.3-4.6 18.7-9.2 28-14.1 8.1-4.2 15.5-10.3 24.4-12.3 7.7-1.7 15.3-0.7 22.9 0.5 8.6 1.3 17.3 2.8 25.6 5.5 7.2 2.3 14.3 5.2 20.8 9.1 17.7 10.5 30.4 28.9 34.1 49.1 4.4 24.1-1.5 48.4-11.9 70.4-1.5 3.3-3.2 6.5-5 9.7-1 1.7-2.1 3.4-3.2 5.1-2.1 3.1-2.2 2.5 1.5 2.1 1.4-0.1 2.8-0.3 4.2-0.5 6.6-0.9 13.3-2.9 19.7-4.6 12.6-3.4 24.9-7.3 37.2-11.5 18.1-6.3 36-13.4 53.2-22 5.9-2.9 12.1-5.8 17.3-9.6 2.4-1.8 2.9-2.5 1.3-4.9-2.2-3.4-5-6.4-7.9-9.3-11.9-11.5-26.1-21.6-41.8-27.7Z"/></svg>