<svg width="32" height="32" viewBox="0 0 128 128" fill="none" xmlns="http://www.w3.org/2000/svg">
<rect width="128" height="128" rx="64" fill="#F3BA2F"/>
<path d="M43.5856 64.0002L64.0002 43.5857L84.4158 64.0002L96.0002 52.4158L64.0002 20.4158L32.0002 52.4158L43.5856 64.0002Z" fill="white"/>
<path d="M20.4158 64.0001L32.0002 52.4157L43.5846 64.0001L32.0002 75.5845L20.4158 64.0001Z" fill="white"/>
<path d="M43.5856 64.0002L64.0002 84.4147L84.4158 64.0002L96.0011 75.5836L64.0011 107.584L32.001 75.5836L43.5856 64.0002Z" fill="white"/>
<path d="M107.584 64.0001L95.9997 52.4157L84.4153 64.0001L95.9997 75.5845L107.584 64.0001Z" fill="white"/>
<path d="M74.8573 64.0003L64.0001 53.1432L56.5706 60.5728L55.144 59.1462L54.4297 58.4319L64.0001 48.8614L73.5706 58.4319L74.8573 64.0003Z" fill="white"/>
<path d="M64.0004 74.8575L53.1433 64.0003L54.4299 58.4319L56.5709 60.573L64.0004 68.0025L71.4299 60.573L73.5709 58.4319L74.8576 64.0003L64.0004 74.8575Z" fill="white"/>
</svg>