<svg xmlns="http://www.w3.org/2000/svg" width="40" height="40" viewBox="0 0 40 40" fill="none"><rect width="40" height="40" rx="20" fill="#FF0420"/><path d="M13.2385 11.3848H18.0644C19.2258 11.3848 20.2332 11.62 21.0865 12.0904C21.9399 12.5608 22.5948 13.2197 23.0512 14.0671C23.5216 14.9145 23.7568 15.9079 23.7568 17.0473C23.7568 18.1866 23.5216 19.183 23.0512 20.0364C22.5948 20.8838 21.9399 21.5427 21.0865 22.0131C20.2332 22.4835 19.2258 22.7187 18.0644 22.7187H15.5481V28.6153H11.8511V11.3848H13.2385ZM17.8712 19.4354C18.7246 19.4354 19.3864 19.2144 19.8568 18.7722C20.3272 18.316 20.5624 17.7748 20.5624 17.0473C20.5624 16.3198 20.3272 15.7786 19.8568 15.3224C19.3864 14.8662 18.7246 14.6381 17.8712 14.6381H15.5481V19.4354H17.8712Z" fill="white"/></svg>