<svg xmlns="http://www.w3.org/2000/svg" width="397" height="311" viewBox="0 0 397 311"><g fill="none"><path fill="#9945FF" d="M64.6 237.9c2.4-2.4 5.7-3.8 9.2-3.8h320.5c5.8 0 8.7 7 4.6 11.1l-62.7 62.7c-2.4 2.4-5.7 3.8-9.2 3.8H6.5c-5.8 0-8.7-7-4.6-11.1l62.7-62.7z"/><path fill="#03E1FF" d="M64.6 3.8C67.1 1.4 70.4 0 73.8 0h320.5c5.8 0 8.7 7 4.6 11.1l-62.7 62.7c-2.4 2.4-5.7 3.8-9.2 3.8H6.5c-5.8 0-8.7-7-4.6-11.1L64.6 3.8z"/><path fill="#fff" d="M64.6 120.9c2.4-2.4 5.7-3.8 9.2-3.8h320.5c5.8 0 8.7 7 4.6 11.1l-62.7 62.7c-2.4 2.4-5.7 3.8-9.2 3.8H6.5c-5.8 0-8.7-7-4.6-11.1l62.7-62.7z"/></g></svg>