<svg width="32" height="32" viewBox="0 0 128 128" fill="none" xmlns="http://www.w3.org/2000/svg">
<rect width="128" height="128" rx="64" fill="#000000"/>
<path d="M37.9146 81.8789C38.6737 81.1199 39.6817 80.694 40.7358 80.694H103.99C105.736 80.694 106.609 82.801 105.32 84.0893L90.0855 99.324C89.3265 100.083 88.3185 100.509 87.2644 100.509H24.01C22.2645 100.509 21.3914 98.4024 22.6803 97.1136L37.9146 81.8789Z" fill="url(#paint0_linear_1_32)"/>
<path d="M37.9146 28.6761C38.6823 27.9171 39.6903 27.4912 40.7358 27.4912H103.99C105.736 27.4912 106.609 29.5977 105.32 30.8866L90.0855 46.1208C89.3265 46.8799 88.3185 47.3058 87.2644 47.3058H24.01C22.2645 47.3058 21.3914 45.1993 22.6803 43.9104L37.9146 28.6761Z" fill="url(#paint1_linear_1_32)"/>
<path d="M90.0855 55.192C89.3265 54.433 88.3185 54.0071 87.2644 54.0071H24.01C22.2645 54.0071 21.3914 56.1136 22.6803 57.4025L37.9146 72.6368C38.6737 73.3958 39.6817 73.8217 40.7358 73.8217H103.99C105.736 73.8217 106.609 71.7152 105.32 70.4263L90.0855 55.192Z" fill="url(#paint2_linear_1_32)"/>
<defs>
<linearGradient id="paint0_linear_1_32" x1="29.567" y1="112.095" x2="86.8007" y2="48.4396" gradientUnits="userSpaceOnUse">
<stop stop-color="#00FFA3"/>
<stop offset="1" stop-color="#DC1FFF"/>
</linearGradient>
<linearGradient id="paint1_linear_1_32" x1="29.567" y1="112.095" x2="86.8007" y2="48.4396" gradientUnits="userSpaceOnUse">
<stop stop-color="#00FFA3"/>
<stop offset="1" stop-color="#DC1FFF"/>
</linearGradient>
<linearGradient id="paint2_linear_1_32" x1="29.567" y1="112.095" x2="86.8007" y2="48.4396" gradientUnits="userSpaceOnUse">
<stop stop-color="#00FFA3"/>
<stop offset="1" stop-color="#DC1FFF"/>
</linearGradient>
</defs>
</svg>