<svg width="32" height="32" viewBox="0 0 32 32" fill="none" xmlns="http://www.w3.org/2000/svg">
  <circle cx="16" cy="16" r="16" fill="#2775CA"/>
  <path d="M16 22.5C19.5899 22.5 22.5 19.5899 22.5 16C22.5 12.4101 19.5899 9.5 16 9.5C12.4101 9.5 9.5 12.4101 9.5 16C9.5 19.5899 12.4101 22.5 16 22.5Z" fill="white"/>
  <path d="M17.2887 15.6249H19.8137C19.6574 13.0374 18.3574 11.9624 16.0387 11.7437V10.25H14.9637V11.7249C14.6699 11.7437 14.3574 11.7624 14.0637 11.7999V11.7437H12.9887V13.0062H13.8012C14.1512 13.0062 14.3074 13.1624 14.3074 13.4937V18.5062C14.3074 18.8749 14.1324 19.0124 13.8012 19.0124H12.9887V20.2749H14.0637V21.7499H15.1387V20.2749C15.4512 20.2937 15.7449 20.3124 16.0387 20.3124V21.7499H17.1137V20.2562C19.7512 20.0187 21.0699 18.8937 21.0699 16.6437C21.0887 14.8187 20.0512 14.0062 17.2887 15.6249ZM14.3074 13.7624C14.3074 13.7624 14.9637 13.6999 15.2762 13.6999C16.6137 13.6999 17.3324 14.1999 17.3324 15.2937C17.3324 16.3874 16.6137 16.9312 15.2762 16.9312C14.9824 16.9312 14.3074 16.8874 14.3074 16.8874V13.7624ZM16.0762 19.2687C14.6449 19.2687 13.6824 18.7874 13.6824 17.3937C13.6824 15.9999 14.6449 15.4937 16.0762 15.4937C16.4449 15.4937 17.4074 15.5562 17.4074 15.5562V19.0687C17.4074 19.0687 16.4449 19.2687 16.0762 19.2687Z" fill="#2775CA"/>
</svg>
