<svg xmlns="http://www.w3.org/2000/svg" width="1200" height="800" viewBox="0 0 1200 800">
  <!-- Background gradient -->
  <defs>
    <linearGradient id="skyGradient" x1="0%" y1="0%" x2="0%" y2="100%">
      <stop offset="0%" stop-color="#0a0025" />
      <stop offset="100%" stop-color="#380036" />
    </linearGradient>
    <linearGradient id="buildingGradient1" x1="0%" y1="0%" x2="100%" y2="100%">
      <stop offset="0%" stop-color="#0f0030" />
      <stop offset="100%" stop-color="#300030" />
    </linearGradient>
    <linearGradient id="buildingGradient2" x1="0%" y1="0%" x2="100%" y2="100%">
      <stop offset="0%" stop-color="#200030" />
      <stop offset="100%" stop-color="#400040" />
    </linearGradient>
    <linearGradient id="neonGradient1" x1="0%" y1="0%" x2="100%" y2="100%">
      <stop offset="0%" stop-color="#ff00ff" />
      <stop offset="100%" stop-color="#ff00a2" />
    </linearGradient>
    <linearGradient id="neonGradient2" x1="0%" y1="0%" x2="100%" y2="100%">
      <stop offset="0%" stop-color="#00e0ff" />
      <stop offset="100%" stop-color="#00a2ff" />
    </linearGradient>
  </defs>

  <!-- Sky background -->
  <rect width="1200" height="800" fill="url(#skyGradient)" />

  <!-- Distant stars -->
  <g>
    <circle cx="100" cy="100" r="1" fill="#ffffff" opacity="0.8" />
    <circle cx="200" cy="80" r="1.5" fill="#ffffff" opacity="0.7" />
    <circle cx="300" cy="120" r="1" fill="#ffffff" opacity="0.6" />
    <circle cx="400" cy="90" r="1.2" fill="#ffffff" opacity="0.8" />
    <circle cx="500" cy="70" r="1" fill="#ffffff" opacity="0.7" />
    <circle cx="600" cy="110" r="1.3" fill="#ffffff" opacity="0.6" />
    <circle cx="700" cy="130" r="1" fill="#ffffff" opacity="0.8" />
    <circle cx="800" cy="60" r="1.4" fill="#ffffff" opacity="0.7" />
    <circle cx="900" cy="100" r="1" fill="#ffffff" opacity="0.6" />
    <circle cx="1000" cy="80" r="1.2" fill="#ffffff" opacity="0.8" />
    <circle cx="1100" cy="120" r="1" fill="#ffffff" opacity="0.7" />
    <circle cx="150" cy="150" r="1.3" fill="#ffffff" opacity="0.6" />
    <circle cx="250" cy="170" r="1" fill="#ffffff" opacity="0.8" />
    <circle cx="350" cy="140" r="1.5" fill="#ffffff" opacity="0.7" />
    <circle cx="450" cy="160" r="1" fill="#ffffff" opacity="0.6" />
    <circle cx="550" cy="130" r="1.2" fill="#ffffff" opacity="0.8" />
    <circle cx="650" cy="150" r="1" fill="#ffffff" opacity="0.7" />
    <circle cx="750" cy="170" r="1.4" fill="#ffffff" opacity="0.6" />
    <circle cx="850" cy="140" r="1" fill="#ffffff" opacity="0.8" />
    <circle cx="950" cy="160" r="1.3" fill="#ffffff" opacity="0.7" />
    <circle cx="1050" cy="150" r="1" fill="#ffffff" opacity="0.6" />
    <circle cx="1150" cy="170" r="1.2" fill="#ffffff" opacity="0.8" />
  </g>

  <!-- Distant mountains/skyline -->
  <path d="M0,600 L50,580 L100,590 L150,570 L200,580 L250,560 L300,570 L350,550 L400,560 L450,540 L500,550 L550,530 L600,540 L650,520 L700,530 L750,510 L800,520 L850,500 L900,510 L950,490 L1000,500 L1050,480 L1100,490 L1150,470 L1200,480 L1200,800 L0,800 Z" fill="#190024" opacity="0.7" />

  <!-- Grid lines (cyberpunk horizon) -->
  <g opacity="0.3">
    <path d="M0,650 L1200,650" stroke="#ff00ff" stroke-width="1" />
    <path d="M0,670 L1200,670" stroke="#ff00ff" stroke-width="1" />
    <path d="M0,690 L1200,690" stroke="#ff00ff" stroke-width="1" />
    <path d="M0,710 L1200,710" stroke="#ff00ff" stroke-width="1" />
    <path d="M0,730 L1200,730" stroke="#ff00ff" stroke-width="1" />
    <path d="M0,750 L1200,750" stroke="#ff00ff" stroke-width="1" />
    <path d="M0,770 L1200,770" stroke="#ff00ff" stroke-width="1" />
    
    <path d="M100,650 L100,800" stroke="#00e0ff" stroke-width="1" />
    <path d="M200,650 L200,800" stroke="#00e0ff" stroke-width="1" />
    <path d="M300,650 L300,800" stroke="#00e0ff" stroke-width="1" />
    <path d="M400,650 L400,800" stroke="#00e0ff" stroke-width="1" />
    <path d="M500,650 L500,800" stroke="#00e0ff" stroke-width="1" />
    <path d="M600,650 L600,800" stroke="#00e0ff" stroke-width="1" />
    <path d="M700,650 L700,800" stroke="#00e0ff" stroke-width="1" />
    <path d="M800,650 L800,800" stroke="#00e0ff" stroke-width="1" />
    <path d="M900,650 L900,800" stroke="#00e0ff" stroke-width="1" />
    <path d="M1000,650 L1000,800" stroke="#00e0ff" stroke-width="1" />
    <path d="M1100,650 L1100,800" stroke="#00e0ff" stroke-width="1" />
  </g>

  <!-- Buildings in the far background -->
  <g>
    <rect x="50" y="400" width="80" height="200" fill="url(#buildingGradient1)" />
    <rect x="150" y="350" width="60" height="250" fill="url(#buildingGradient2)" />
    <rect x="230" y="380" width="70" height="220" fill="url(#buildingGradient1)" />
    <rect x="320" y="330" width="50" height="270" fill="url(#buildingGradient2)" />
    <rect x="390" y="370" width="90" height="230" fill="url(#buildingGradient1)" />
    <rect x="500" y="320" width="40" height="280" fill="url(#buildingGradient2)" />
    <rect x="560" y="360" width="70" height="240" fill="url(#buildingGradient1)" />
    <rect x="650" y="340" width="60" height="260" fill="url(#buildingGradient2)" />
    <rect x="730" y="380" width="80" height="220" fill="url(#buildingGradient1)" />
    <rect x="830" y="350" width="50" height="250" fill="url(#buildingGradient2)" />
    <rect x="900" y="370" width="70" height="230" fill="url(#buildingGradient1)" />
    <rect x="990" y="330" width="60" height="270" fill="url(#buildingGradient2)" />
    <rect x="1070" y="360" width="80" height="240" fill="url(#buildingGradient1)" />
  </g>

  <!-- Building windows (neon lights) -->
  <g opacity="0.7">
    <!-- Building 1 windows -->
    <rect x="60" y="410" width="10" height="10" fill="url(#neonGradient1)" />
    <rect x="80" y="410" width="10" height="10" fill="url(#neonGradient2)" />
    <rect x="100" y="410" width="10" height="10" fill="url(#neonGradient1)" />
    <rect x="60" y="430" width="10" height="10" fill="url(#neonGradient2)" />
    <rect x="80" y="430" width="10" height="10" fill="url(#neonGradient1)" />
    <rect x="100" y="430" width="10" height="10" fill="url(#neonGradient2)" />
    <rect x="60" y="450" width="10" height="10" fill="url(#neonGradient1)" />
    <rect x="80" y="450" width="10" height="10" fill="url(#neonGradient2)" />
    <rect x="100" y="450" width="10" height="10" fill="url(#neonGradient1)" />
    <rect x="60" y="470" width="10" height="10" fill="url(#neonGradient2)" />
    <rect x="80" y="470" width="10" height="10" fill="url(#neonGradient1)" />
    <rect x="100" y="470" width="10" height="10" fill="url(#neonGradient2)" />
    
    <!-- Building 3 windows -->
    <rect x="240" y="390" width="10" height="10" fill="url(#neonGradient1)" />
    <rect x="260" y="390" width="10" height="10" fill="url(#neonGradient2)" />
    <rect x="280" y="390" width="10" height="10" fill="url(#neonGradient1)" />
    <rect x="240" y="410" width="10" height="10" fill="url(#neonGradient2)" />
    <rect x="260" y="410" width="10" height="10" fill="url(#neonGradient1)" />
    <rect x="280" y="410" width="10" height="10" fill="url(#neonGradient2)" />
    <rect x="240" y="430" width="10" height="10" fill="url(#neonGradient1)" />
    <rect x="260" y="430" width="10" height="10" fill="url(#neonGradient2)" />
    <rect x="280" y="430" width="10" height="10" fill="url(#neonGradient1)" />
    
    <!-- Building 5 windows -->
    <rect x="400" y="380" width="10" height="10" fill="url(#neonGradient1)" />
    <rect x="420" y="380" width="10" height="10" fill="url(#neonGradient2)" />
    <rect x="440" y="380" width="10" height="10" fill="url(#neonGradient1)" />
    <rect x="460" y="380" width="10" height="10" fill="url(#neonGradient2)" />
    <rect x="400" y="400" width="10" height="10" fill="url(#neonGradient2)" />
    <rect x="420" y="400" width="10" height="10" fill="url(#neonGradient1)" />
    <rect x="440" y="400" width="10" height="10" fill="url(#neonGradient2)" />
    <rect x="460" y="400" width="10" height="10" fill="url(#neonGradient1)" />
    <rect x="400" y="420" width="10" height="10" fill="url(#neonGradient1)" />
    <rect x="420" y="420" width="10" height="10" fill="url(#neonGradient2)" />
    <rect x="440" y="420" width="10" height="10" fill="url(#neonGradient1)" />
    <rect x="460" y="420" width="10" height="10" fill="url(#neonGradient2)" />
    
    <!-- Building 7 windows -->
    <rect x="570" y="370" width="10" height="10" fill="url(#neonGradient1)" />
    <rect x="590" y="370" width="10" height="10" fill="url(#neonGradient2)" />
    <rect x="610" y="370" width="10" height="10" fill="url(#neonGradient1)" />
    <rect x="570" y="390" width="10" height="10" fill="url(#neonGradient2)" />
    <rect x="590" y="390" width="10" height="10" fill="url(#neonGradient1)" />
    <rect x="610" y="390" width="10" height="10" fill="url(#neonGradient2)" />
    <rect x="570" y="410" width="10" height="10" fill="url(#neonGradient1)" />
    <rect x="590" y="410" width="10" height="10" fill="url(#neonGradient2)" />
    <rect x="610" y="410" width="10" height="10" fill="url(#neonGradient1)" />
    
    <!-- Building 9 windows -->
    <rect x="740" y="390" width="10" height="10" fill="url(#neonGradient1)" />
    <rect x="760" y="390" width="10" height="10" fill="url(#neonGradient2)" />
    <rect x="780" y="390" width="10" height="10" fill="url(#neonGradient1)" />
    <rect x="740" y="410" width="10" height="10" fill="url(#neonGradient2)" />
    <rect x="760" y="410" width="10" height="10" fill="url(#neonGradient1)" />
    <rect x="780" y="410" width="10" height="10" fill="url(#neonGradient2)" />
    <rect x="740" y="430" width="10" height="10" fill="url(#neonGradient1)" />
    <rect x="760" y="430" width="10" height="10" fill="url(#neonGradient2)" />
    <rect x="780" y="430" width="10" height="10" fill="url(#neonGradient1)" />
    
    <!-- Building 11 windows -->
    <rect x="910" y="380" width="10" height="10" fill="url(#neonGradient1)" />
    <rect x="930" y="380" width="10" height="10" fill="url(#neonGradient2)" />
    <rect x="950" y="380" width="10" height="10" fill="url(#neonGradient1)" />
    <rect x="910" y="400" width="10" height="10" fill="url(#neonGradient2)" />
    <rect x="930" y="400" width="10" height="10" fill="url(#neonGradient1)" />
    <rect x="950" y="400" width="10" height="10" fill="url(#neonGradient2)" />
    <rect x="910" y="420" width="10" height="10" fill="url(#neonGradient1)" />
    <rect x="930" y="420" width="10" height="10" fill="url(#neonGradient2)" />
    <rect x="950" y="420" width="10" height="10" fill="url(#neonGradient1)" />
    
    <!-- Building 13 windows -->
    <rect x="1080" y="370" width="10" height="10" fill="url(#neonGradient1)" />
    <rect x="1100" y="370" width="10" height="10" fill="url(#neonGradient2)" />
    <rect x="1120" y="370" width="10" height="10" fill="url(#neonGradient1)" />
    <rect x="1080" y="390" width="10" height="10" fill="url(#neonGradient2)" />
    <rect x="1100" y="390" width="10" height="10" fill="url(#neonGradient1)" />
    <rect x="1120" y="390" width="10" height="10" fill="url(#neonGradient2)" />
    <rect x="1080" y="410" width="10" height="10" fill="url(#neonGradient1)" />
    <rect x="1100" y="410" width="10" height="10" fill="url(#neonGradient2)" />
    <rect x="1120" y="410" width="10" height="10" fill="url(#neonGradient1)" />
  </g>

  <!-- Moon with glow -->
  <g>
    <circle cx="900" cy="150" r="40" fill="#00e0ff" opacity="0.3" />
    <circle cx="900" cy="150" r="30" fill="#00e0ff" opacity="0.5" />
    <circle cx="900" cy="150" r="20" fill="#00e0ff" />
  </g>

  <!-- Flying cars or drones (distant) -->
  <g>
    <rect x="300" y="300" width="15" height="5" fill="#ff00ff" opacity="0.8" rx="2" ry="2" />
    <rect x="500" y="250" width="12" height="4" fill="#00e0ff" opacity="0.7" rx="2" ry="2" />
    <rect x="700" y="320" width="14" height="5" fill="#ff00ff" opacity="0.8" rx="2" ry="2" />
    <rect x="900" y="280" width="13" height="4" fill="#00e0ff" opacity="0.7" rx="2" ry="2" />
  </g>

  <!-- Vertical light beams (distant searchlights) -->
  <g opacity="0.2">
    <path d="M200,0 L180,400 L220,400 Z" fill="#ff00ff" />
    <path d="M600,0 L580,400 L620,400 Z" fill="#00e0ff" />
    <path d="M1000,0 L980,400 L1020,400 Z" fill="#ff00ff" />
  </g>
</svg>