<svg width="32" height="32" viewBox="0 0 32 32" fill="none" xmlns="http://www.w3.org/2000/svg">
  <circle cx="16" cy="16" r="16" fill="#FAFAFA"/>
  <path fill-rule="evenodd" clip-rule="evenodd" d="M14.5 10.5C14.5 10.2239 14.7239 10 15 10H24C24.2761 10 24.5 10.2239 24.5 10.5V14C24.5 14.2761 24.2761 14.5 24 14.5H19.5V16H21C22.933 16 24.5 17.567 24.5 19.5C24.5 21.433 22.933 23 21 23H15C14.7239 23 14.5 22.7761 14.5 22.5V19C14.5 18.7239 14.7239 18.5 15 18.5H19.5V19.5C19.5 19.7761 19.2761 20 19 20H18C17.7239 20 17.5 19.7761 17.5 19.5V19C17.5 18.7239 17.7239 18.5 18 18.5H21C21.2761 18.5 21.5 18.7239 21.5 19C21.5 19.2761 21.2761 19.5 21 19.5H18.5V22H21C21.8284 22 22.5 21.3284 22.5 20.5C22.5 19.6716 21.8284 19 21 19H15C14.7239 19 14.5 18.7761 14.5 18.5V14.5H10C9.72386 14.5 9.5 14.2761 9.5 14V10.5C9.5 10.2239 9.72386 10 10 10H13.5V8.5C13.5 8.22386 13.7239 8 14 8H19C19.2761 8 19.5 8.22386 19.5 8.5V10H22V11.5H16.5V13H22.5V10.5H15.5V8.5H17V9.5H19V8.5H15V10.5H14.5V14H11V11.5H13.5V10H10.5V14H15V10.5Z" fill="black"/>
</svg>