<svg width="32" height="32" viewBox="0 0 32 32" fill="none" xmlns="http://www.w3.org/2000/svg">
  <circle cx="16" cy="16" r="16" fill="#FF00FF"/>
  <path d="M8 10C8 8.89543 8.89543 8 10 8H22C23.1046 8 24 8.89543 24 10V15C24 16.1046 23.1046 17 22 17H10C8.89543 17 8 16.1046 8 15V10Z" fill="#000000"/>
  <rect x="9" y="9" width="14" height="7" rx="1" fill="#00E0FF"/>
  <path d="M10 18H22C23.1046 18 24 18.8954 24 20V22C24 23.1046 23.1046 24 22 24H10C8.89543 24 8 23.1046 8 22V20C8 18.8954 8.89543 18 10 18Z" fill="#000000"/>
  <rect x="11" y="19" width="10" height="4" rx="0.5" fill="#00E0FF"/>
  <path d="M13 11.5L14 14.5L16 11.5L18 14.5L19 11.5" stroke="#000000" stroke-width="1.5" stroke-linecap="round" stroke-linejoin="round"/>
  <circle cx="11.5" cy="21" r="1" fill="#FF00FF"/>
  <circle cx="20.5" cy="21" r="1" fill="#FF00FF"/>
  <rect x="14" y="20" width="4" height="2" rx="0.5" fill="#FF00FF"/>
</svg>