<svg width="32" height="32" viewBox="0 0 32 32" fill="none" xmlns="http://www.w3.org/2000/svg">
  <circle cx="16" cy="16" r="16" fill="#0B192F"/>
  <path fill-rule="evenodd" clip-rule="evenodd" d="M10 17.5C10 17.2239 10.2239 17 10.5 17H12.5C12.7761 17 13 17.2239 13 17.5V22.5C13 22.7761 12.7761 23 12.5 23H10.5C10.2239 23 10 22.7761 10 22.5V17.5ZM14.5 14C14.2239 14 14 14.2239 14 14.5V22.5C14 22.7761 14.2239 23 14.5 23H16.5C16.7761 23 17 22.7761 17 22.5V14.5C17 14.2239 16.7761 14 16.5 14H14.5ZM18 11.5C18 11.2239 18.2239 11 18.5 11H20.5C20.7761 11 21 11.2239 21 11.5V22.5C21 22.7761 20.7761 23 20.5 23H18.5C18.2239 23 18 22.7761 18 22.5V11.5Z" fill="#2AE1AC"/>
  <path d="M11 10C11 9.44772 11.4477 9 12 9H21C21.5523 9 22 9.44772 22 10C22 10.5523 21.5523 11 21 11H12C11.4477 11 11 10.5523 11 10Z" fill="#2AE1AC"/>
</svg>