<svg width="32" height="32" viewBox="0 0 32 32" fill="none" xmlns="http://www.w3.org/2000/svg">
  <circle cx="16" cy="16" r="16" fill="#03828D"/>
  <path d="M10.8 18.4C9.8667 18.4 9.06667 18.0833 8.4 17.45C7.73333 16.8167 7.4 16.05 7.4 15.15C7.4 14.25 7.73333 13.4833 8.4 12.85C9.06667 12.2167 9.8667 11.9 10.8 11.9C11.0333 11.9 11.25 11.9167 11.45 11.95C11.65 11.9833 11.8333 12.0333 12 12.1C11.9333 12.3 11.8833 12.5 11.85 12.7C11.8167 12.9 11.8 13.1 11.8 13.3C11.8 14.2333 12.125 15 12.775 15.6C13.425 16.2 14.2333 16.5 15.2 16.5C15.3667 16.5 15.5417 16.4833 15.725 16.45C15.9083 16.4167 16.0833 16.3667 16.25 16.3C16.3167 16.4667 16.3667 16.65 16.4 16.85C16.4333 17.05 16.45 17.2667 16.45 17.5C16.45 18.4333 16.1167 19.2333 15.45 19.9C14.7833 20.5667 13.9667 20.9 13 20.9C12.7667 20.9 12.55 20.8833 12.35 20.85C12.15 20.8167 11.9667 20.7667 11.8 20.7C11.8667 20.5 11.9167 20.3 11.95 20.1C11.9833 19.9 12 19.7 12 19.5C12 18.6 11.6833 17.8417 11.05 17.225C10.4167 16.6083 9.63333 16.3 8.7 16.3C8.53333 16.3 8.35833 16.3167 8.175 16.35C7.99167 16.3833 7.81667 16.4333 7.65 16.5C7.58333 16.3333 7.53333 16.15 7.5 15.95C7.46667 15.75 7.45 15.5333 7.45 15.3C7.45 14.4 7.77497 13.6167 8.4249 12.95C9.07483 12.2833 9.88333 11.95 10.85 11.95C11.1167 11.95 11.3667 11.9833 11.6 12.05C11.8333 12.1167 12.05 12.1833 12.25 12.25C12.35 12.45 12.425 12.6583 12.475 12.875C12.525 13.0917 12.55 13.3167 12.55 13.55C12.55 14.35 12.8 15.0083 13.3 15.525C13.8 16.0417 14.4333 16.3 15.2 16.3C15.3333 16.3 15.4583 16.2917 15.575 16.275C15.6917 16.2583 15.8 16.2333 15.9 16.2C16.0333 16.4 16.1333 16.625 16.2 16.875C16.2667 17.125 16.3 17.3833 16.3 17.65C16.3 18.4167 16.0167 19.0583 15.45 19.575C14.8833 20.0917 14.2 20.35 13.4 20.35C13.2667 20.35 13.1417 20.3417 13.025 20.325C12.9083 20.3083 12.8 20.2833 12.7 20.25C12.5667 20.05 12.4667 19.825 12.4 19.575C12.3333 19.325 12.3 19.0667 12.3 18.8C12.3 18.0333 12.0167 17.3917 11.45 16.875C10.8833 16.3583 10.1667 16.1 9.3 16.1C9.16667 16.1 9.04167 16.1083 8.925 16.125C8.80833 16.1417 8.7 16.1667 8.6 16.2C8.46667 16 8.36667 15.775 8.3 15.525C8.23333 15.275 8.2 15.0167 8.2 14.75C8.2 13.9833 8.48333 13.3417 9.05 12.825C9.61667 12.3083 10.3 12.05 11.1 12.05C11.2333 12.05 11.3583 12.0583 11.475 12.075C11.5917 12.0917 11.7 12.1167 11.8 12.15C11.9333 12.35 12.0333 12.575 12.1 12.825C12.1667 13.075 12.2 13.3333 12.2 13.6C12.2 14.3667 12.4833 15.0083 13.05 15.525C13.6167 16.0417 14.3333 16.3 15.2 16.3C15.3333 16.3 15.4583 16.2917 15.575 16.275C15.6917 16.2583 15.8 16.2333 15.9 16.2C16.0333 16.4 16.1333 16.625 16.2 16.875C16.2667 17.125 16.3 17.3833 16.3 17.65C16.3 18.4167 16.0167 19.0583 15.45 19.575C14.8833 20.0917 14.2 20.35 13.4 20.35C13.2667 20.35 13.1417 20.3417 13.025 20.325C12.9083 20.3083 12.8 20.2833 12.7 20.25" fill="white"/>
  <path d="M19.65 21.5C18.4833 21.5 17.5 21.1167 16.7 20.35C15.9 19.5833 15.5 18.6333 15.5 17.5C15.5 16.3667 15.9 15.4167 16.7 14.65C17.5 13.8833 18.4833 13.5 19.65 13.5C20.8167 13.5 21.8 13.8833 22.6 14.65C23.4 15.4167 23.8 16.3667 23.8 17.5C23.8 18.6333 23.4 19.5833 22.6 20.35C21.8 21.1167 20.8167 21.5 19.65 21.5ZM19.65 20.75C20.6167 20.75 21.425 20.4333 22.075 19.8C22.725 19.1667 23.05 18.4 23.05 17.5C23.05 16.6 22.725 15.8333 22.075 15.2C21.425 14.5667 20.6167 14.25 19.65 14.25C18.6833 14.25 17.875 14.5667 17.225 15.2C16.575 15.8333 16.25 16.6 16.25 17.5C16.25 18.4 16.575 19.1667 17.225 19.8C17.875 20.4333 18.6833 20.75 19.65 20.75Z" fill="white"/>
  <ellipse cx="19.5" cy="16.5" rx="1.5" ry="2.5" fill="white"/>
</svg>