<svg width="32" height="32" viewBox="0 0 32 32" fill="none" xmlns="http://www.w3.org/2000/svg">
  <circle cx="16" cy="16" r="16" fill="#1D63FF"/>
  <path d="M7 12.8333C7 9.61117 9.67783 7 13 7H19C22.3222 7 25 9.61117 25 12.8333V19.1667C25 22.3888 22.3222 25 19 25H13C9.67783 25 7 22.3888 7 19.1667V12.8333Z" fill="#1D63FF" stroke="white" stroke-width="2"/>
  <path d="M25 12.8333V10.6667C25 9.19391 23.7511 8 22.2 8H19M7 19.1667V21.3333C7 22.8061 8.24893 24 9.8 24H13" stroke="white" stroke-width="2"/>
  <path d="M17.2 11.2222L22.2 16L17.2 20.7778" stroke="white" stroke-width="2" stroke-linecap="round" stroke-linejoin="round"/>
  <path d="M14.8 11.2222L9.8 16L14.8 20.7778" stroke="white" stroke-width="2" stroke-linecap="round" stroke-linejoin="round"/>
</svg>