<svg width="32" height="32" viewBox="0 0 32 32" fill="none" xmlns="http://www.w3.org/2000/svg">
  <circle cx="16" cy="16" r="16" fill="#6E66FA"/>
  <path fill-rule="evenodd" clip-rule="evenodd" d="M9.33333 10.6667C9.33333 9.19391 10.5272 8 12 8H20C21.4728 8 22.6667 9.19391 22.6667 10.6667V21.3333C22.6667 22.8061 21.4728 24 20 24H12C10.5272 24 9.33333 22.8061 9.33333 21.3333V10.6667ZM12 9.33333C11.2636 9.33333 10.6667 9.93028 10.6667 10.6667V21.3333C10.6667 22.0697 11.2636 22.6667 12 22.6667H20C20.7364 22.6667 21.3333 22.0697 21.3333 21.3333V10.6667C21.3333 9.93028 20.7364 9.33333 20 9.33333H12Z" fill="white"/>
  <path fill-rule="evenodd" clip-rule="evenodd" d="M14.6667 13.3333C14.6667 12.9651 14.9651 12.6667 15.3333 12.6667H18.6667C19.0349 12.6667 19.3333 12.9651 19.3333 13.3333V14C19.3333 14.3682 19.0349 14.6667 18.6667 14.6667H15.3333C14.9651 14.6667 14.6667 14.3682 14.6667 14V13.3333ZM12.6667 18C12.6667 17.6318 12.9651 17.3333 13.3333 17.3333H18.6667C19.0349 17.3333 19.3333 17.6318 19.3333 18V18.6667C19.3333 19.0349 19.0349 19.3333 18.6667 19.3333H13.3333C12.9651 19.3333 12.6667 19.0349 12.6667 18.6667V18Z" fill="white"/>
</svg>