<svg width="32" height="32" viewBox="0 0 32 32" fill="none" xmlns="http://www.w3.org/2000/svg">
  <circle cx="16" cy="16" r="16" fill="#FF007A"/>
  <path d="M18.4 8C18.7314 8 19 8.26863 19 8.6V9.33333C19 9.70152 18.7314 10 18.4 10H16.6C16.2686 10 16 9.70152 16 9.33333V8.6C16 8.26863 16.2686 8 16.6 8H18.4Z" fill="white"/>
  <path d="M22.4 12.6667C22.4 13.4 21.8 14 21.0667 14C20.3333 14 19.7333 13.4 19.7333 12.6667C19.7333 12.6667 19.7333 10.6667 17.7333 10.6667C15.7333 10.6667 15.7333 12.6667 15.7333 12.6667V18C15.7333 18 17.0667 18 17.0667 19.3333C17.0667 20.6667 15.7333 20.6667 15.7333 20.6667H13.0667C13.0667 20.6667 13.0667 19.3333 11.7333 19.3333C10.4 19.3333 10.4 20.6667 10.4 20.6667C10.4 20.6667 10.4 22.6667 12.4 22.6667C14.4 22.6667 14.4 20.6667 14.4 20.6667V15.3333C14.4 15.3333 15.7333 15.3333 15.7333 14C15.7333 12.6667 14.4 12.6667 14.4 12.6667C14.4 11.9333 15 11.3333 15.7333 11.3333C16.4667 11.3333 17.0667 11.9333 17.0667 12.6667C17.0667 13.4 16.4667 14 15.7333 14V15.3333C17.0667 15.3333 18.4 16.6667 18.4 18C18.4 19.3333 17.0667 20.6667 15.7333 20.6667V22C17.7333 22 19.0667 20.6667 19.0667 18.6667C19.0667 17 18.0417 15.6667 16.7333 15.3333C17.8833 15 18.4 13.9333 18.4 12.6667C18.4 11.9333 19 11.3333 19.7333 11.3333C20.4667 11.3333 21.0667 11.9333 21.0667 12.6667C21.0667 13.4 20.4667 14 19.7333 14V15.3333C21.0667 15.3333 22.4 16.6667 22.4 18C22.4 19.3333 21.0667 20.6667 19.7333 20.6667V22C21.7333 22 23.0667 20.6667 23.0667 18.6667C23.0667 17 22.0417 15.6667 20.7333 15.3333C21.8833 15 22.4 13.9333 22.4 12.6667Z" fill="white"/>
  <path d="M9.6 22C9.26863 22 9 21.7314 9 21.4V20.6667C9 20.2985 9.26863 20 9.6 20H11.4C11.7314 20 12 20.2985 12 20.6667V21.4C12 21.7314 11.7314 22 11.4 22H9.6Z" fill="white"/>
</svg>