<svg xmlns="http://www.w3.org/2000/svg" width="512" height="512" viewBox="0 0 512 512">
  <!-- Enhanced gradient definitions -->
  <defs>
    <linearGradient id="primaryGradient" x1="0%" y1="0%" x2="100%" y2="100%">
      <stop offset="0%" style="stop-color:#ff00ff;stop-opacity:1" />
      <stop offset="100%" style="stop-color:#00e0ff;stop-opacity:1" />
    </linearGradient>
    
    <linearGradient id="secondaryGradient" x1="100%" y1="0%" x2="0%" y2="100%">
      <stop offset="0%" style="stop-color:#ff00ff;stop-opacity:0.8" />
      <stop offset="100%" style="stop-color:#00e0ff;stop-opacity:0.8" />
    </linearGradient>
    
    <filter id="mainGlow" x="-50%" y="-50%" width="200%" height="200%">
      <feGaussianBlur stdDeviation="15" result="blur" />
      <feComposite in="SourceGraphic" in2="blur" operator="over" />
    </filter>
    
    <filter id="textGlow" x="-20%" y="-20%" width="140%" height="140%">
      <feGaussianBlur stdDeviation="5" result="blur" />
      <feComposite in="SourceGraphic" in2="blur" operator="over" />
    </filter>
  </defs>
  
  <!-- Main circular background -->
  <circle cx="256" cy="256" r="250" fill="black" />
  <circle cx="256" cy="256" r="230" fill="url(#primaryGradient)" opacity="0.7" />
  <circle cx="256" cy="256" r="210" fill="black" opacity="0.7" />
  
  <!-- Stylized cyberpunk cat -->
  <g transform="translate(256, 230)" filter="url(#mainGlow)">
    <!-- Head shape -->
    <ellipse cx="0" cy="0" rx="120" ry="110" fill="#000" />
    
    <!-- Cat ears -->
    <path d="M-70 -60 L-100 -130 L-40 -80 Z" fill="url(#primaryGradient)" />
    <path d="M70 -60 L100 -130 L40 -80 Z" fill="url(#secondaryGradient)" />
    
    <!-- Geometric cyber patterns -->
    <path d="M-50 -10 L50 -10 L50 -50 L-50 -50 Z" fill="none" stroke="#00e0ff" stroke-width="3" opacity="0.7" />
    <path d="M-40 50 L40 50 L40 20 L-40 20 Z" fill="none" stroke="#ff00ff" stroke-width="3" opacity="0.7" />
    
    <!-- Cat eyes (glowing) -->
    <ellipse cx="-40" cy="-15" rx="25" ry="20" fill="#ff00ff" filter="url(#textGlow)" />
    <ellipse cx="40" cy="-15" rx="25" ry="20" fill="#00e0ff" filter="url(#textGlow)" />
    
    <!-- Inner eye glow -->
    <circle cx="-40" cy="-15" r="10" fill="white" />
    <circle cx="40" cy="-15" r="10" fill="white" />
    
    <!-- Nose -->
    <polygon points="0,20 -15,40 15,40" fill="#ff00ff" opacity="0.9" />
    
    <!-- Mouth (cyber style) -->
    <path d="M-30,55 C-20,65 20,65 30,55" stroke="white" stroke-width="3" fill="none" />
    
    <!-- Whiskers (with glow) -->
    <g opacity="0.7">
      <line x1="-45" y1="30" x2="-85" y2="25" stroke="#ff00ff" stroke-width="2" />
      <line x1="-45" y1="40" x2="-85" y2="45" stroke="#ff00ff" stroke-width="2" />
      <line x1="45" y1="30" x2="85" y2="25" stroke="#00e0ff" stroke-width="2" />
      <line x1="45" y1="40" x2="85" y2="45" stroke="#00e0ff" stroke-width="2" />
    </g>
  </g>
  
  <!-- Token symbol $ -->
  <text x="256" y="120" font-family="Arial, sans-serif" font-weight="bold" font-size="80" fill="white" text-anchor="middle" filter="url(#textGlow)">
    $
  </text>
  
  <!-- Token name -->
  <text x="256" y="380" font-family="Arial, sans-serif" font-weight="900" font-size="52" fill="white" text-anchor="middle" filter="url(#textGlow)">
    CHONK9K
  </text>
  
  <!-- Cyberpunk grid effects -->
  <g stroke="rgba(255,255,255,0.15)" stroke-width="1">
    <circle cx="256" cy="256" r="200" fill="none" />
    <circle cx="256" cy="256" r="180" fill="none" />
    <circle cx="256" cy="256" r="160" fill="none" />
    <circle cx="256" cy="256" r="140" fill="none" />
    <circle cx="256" cy="256" r="120" fill="none" />
    
    <!-- Grid lines -->
    <line x1="256" y1="56" x2="256" y2="456" />
    <line x1="56" y1="256" x2="456" y2="256" />
    
    <!-- Diagonal grid lines -->
    <line x1="106" y1="106" x2="406" y2="406" />
    <line x1="106" y1="406" x2="406" y2="106" />
  </g>
</svg>