<svg xmlns="http://www.w3.org/2000/svg" width="512" height="512" viewBox="0 0 512 512">
  <!-- Colorful gradient background -->
  <defs>
    <linearGradient id="grad1" x1="0%" y1="0%" x2="100%" y2="100%">
      <stop offset="0%" style="stop-color:#ff00ff;stop-opacity:1" />
      <stop offset="100%" style="stop-color:#00e0ff;stop-opacity:1" />
    </linearGradient>
    
    <filter id="glow" x="-50%" y="-50%" width="200%" height="200%">
      <feGaussianBlur stdDeviation="10" result="blur" />
      <feComposite in="SourceGraphic" in2="blur" operator="over" />
    </filter>
  </defs>
  
  <!-- Circular background -->
  <circle cx="256" cy="256" r="240" fill="black" />
  <circle cx="256" cy="256" r="220" fill="url(#grad1)" opacity="0.8" />
  
  <!-- Cyberpunk cat silhouette -->
  <path d="M256 120
           C200 120 160 150 160 200
           C160 250 200 280 256 280
           C312 280 352 250 352 200
           C352 150 312 120 256 120 Z"
        fill="black" />
        
  <!-- Cat ears -->
  <path d="M200 160 L180 100 L220 130 Z" fill="black" />
  <path d="M312 160 L332 100 L292 130 Z" fill="black" />
  
  <!-- Cat eyes (glowing) -->
  <circle cx="210" cy="190" r="15" fill="#00e0ff" filter="url(#glow)" />
  <circle cx="302" cy="190" r="15" fill="#00e0ff" filter="url(#glow)" />
  
  <!-- Text for CHONK9K -->
  <g transform="translate(256, 350)" text-anchor="middle">
    <text font-family="Arial, sans-serif" font-weight="bold" font-size="48" fill="white" filter="url(#glow)">
      CHONK9K
    </text>
  </g>
  
  <!-- Cyberpunk grid lines -->
  <g stroke="rgba(255,255,255,0.2)" stroke-width="1">
    <line x1="100" y1="256" x2="412" y2="256" />
    <line x1="256" y1="100" x2="256" y2="412" />
    <circle cx="256" cy="256" r="180" fill="none" />
    <circle cx="256" cy="256" r="140" fill="none" />
    <circle cx="256" cy="256" r="100" fill="none" />
  </g>
</svg>