<svg width="200" height="200" viewBox="0 0 200 200" fill="none" xmlns="http://www.w3.org/2000/svg">
  <circle cx="100" cy="100" r="100" fill="#000000"/>
  <path d="M100 170C138.66 170 170 138.66 170 100C170 61.3401 138.66 30 100 30C61.3401 30 30 61.3401 30 100C30 138.66 61.3401 170 100 170Z" fill="black" stroke="url(#paint0_linear)" stroke-width="3"/>
  <path d="M85 85C93.2843 85 100 78.2843 100 70C100 61.7157 93.2843 55 85 55C76.7157 55 70 61.7157 70 70C70 78.2843 76.7157 85 85 85Z" fill="url(#paint1_radial)"/>
  <path d="M115 85C123.284 85 130 78.2843 130 70C130 61.7157 123.284 55 115 55C106.716 55 100 61.7157 100 70C100 78.2843 106.716 85 115 85Z" fill="url(#paint2_radial)"/>
  <path d="M100 80C100 75.5817 100 71.1634 100 66.7451C100 62.3268 100 57.9085 100 53.4902C100 49.0719 100 44.6536 100 40.2353C100 35.817 100 31.3987 100 26.9804" stroke="#FF00FF" stroke-width="3" stroke-linecap="round"/>
  <path d="M100 173.02C100 168.601 100 164.183 100 159.765C100 155.346 100 150.928 100 146.51C100 142.092 100 137.673 100 133.255C100 128.837 100 124.418 100 120" stroke="#00E0FF" stroke-width="3" stroke-linecap="round"/>
  <path d="M55.6471 60C59.0997 60 62.5523 60 66.0049 60C69.4575 60 72.9101 60 76.3627 60C79.8153 60 83.2679 60 86.7205 60C90.1731 60 93.6258 60 97.0784 60" stroke="#FF00FF" stroke-width="3" stroke-linecap="round"/>
  <path d="M103.922 60C107.374 60 110.827 60 114.279 60C117.732 60 121.185 60 124.637 60C128.09 60 131.542 60 134.995 60C138.447 60 141.9 60 145.353 60" stroke="#00E0FF" stroke-width="3" stroke-linecap="round"/>
  <path d="M90 120C80 130 70 130 60 120C60 110 70 100 80 100C90 100 100 110 100 120" stroke="#FF00FF" stroke-width="3" stroke-linecap="round"/>
  <path d="M110 120C120 130 130 130 140 120C140 110 130 100 120 100C110 100 100 110 100 120" stroke="#00E0FF" stroke-width="3" stroke-linecap="round"/>
  <path d="M87.9996 141.015C84.7204 139.158 82.4566 137.066 81.2084 134.737C79.9602 132.408 79.7832 129.932 80.6772 127.31" stroke="#FF00FF" stroke-width="3" stroke-linecap="round"/>
  <path d="M119.323 127.31C120.217 129.932 120.04 132.408 118.792 134.737C117.543 137.066 115.28 139.158 112 141.015" stroke="#00E0FF" stroke-width="3" stroke-linecap="round"/>
  <defs>
    <linearGradient id="paint0_linear" x1="30" y1="30" x2="170" y2="170" gradientUnits="userSpaceOnUse">
      <stop stop-color="#FF00FF"/>
      <stop offset="1" stop-color="#00E0FF"/>
    </linearGradient>
    <radialGradient id="paint1_radial" cx="0" cy="0" r="1" gradientUnits="userSpaceOnUse" gradientTransform="translate(85 70) rotate(90) scale(15)">
      <stop stop-color="#FF00FF"/>
      <stop offset="1" stop-color="#B700B2"/>
    </radialGradient>
    <radialGradient id="paint2_radial" cx="0" cy="0" r="1" gradientUnits="userSpaceOnUse" gradientTransform="translate(115 70) rotate(90) scale(15)">
      <stop stop-color="#00E0FF"/>
      <stop offset="1" stop-color="#0099AD"/>
    </radialGradient>
  </defs>
</svg>
