<svg width="32" height="32" viewBox="0 0 32 32" fill="none" xmlns="http://www.w3.org/2000/svg">
<path d="M16 32C24.8366 32 32 24.8366 32 16C32 7.16344 24.8366 0 16 0C7.16344 0 0 7.16344 0 16C0 24.8366 7.16344 32 16 32Z" fill="#6F4CFF"/>
<path d="M23.2 8.79999H16.8C14.1 8.79999 12 10.9 12 13.6V18.4C12 21.1 14.1 23.2 16.8 23.2H21.6C24.3 23.2 26.4 21.1 26.4 18.4V12C26.4 10.3 25 8.79999 23.2 8.79999ZM20.4 19.2C18.5 19.2 17 17.7 17 15.8C17 13.9 18.5 12.4 20.4 12.4C22.3 12.4 23.8 13.9 23.8 15.8C23.8 17.7 22.3 19.2 20.4 19.2Z" fill="white"/>
<path d="M14.5001 23.2H9.7001C7.0001 23.2 5.6001 21.1 5.6001 18.4V12C5.6001 10.3 7.0001 8.8 8.8001 8.8H15.2001C15.8001 8.8 16.4001 9 16.9001 9.3C16.0001 9.8 15.2001 10.6 14.7001 11.5C14.6001 11.5 14.5001 11.5 14.5001 11.5C12.6001 11.5 11.1001 13 11.1001 14.9C11.1001 16.8 12.6001 18.3 14.5001 18.3C14.8001 18.3 15.1001 18.2 15.4001 18.1C15.4001 18.4 15.5001 18.7 15.6001 19C15.8001 19.7 16.2001 20.3 16.6001 20.9C16.0001 22.3 14.5001 23.2 14.5001 23.2Z" fill="white"/>
</svg>