<svg width="32" height="32" viewBox="0 0 32 32" fill="none" xmlns="http://www.w3.org/2000/svg">
<path d="M16 32C24.8366 32 32 24.8366 32 16C32 7.16344 24.8366 0 16 0C7.16344 0 0 7.16344 0 16C0 24.8366 7.16344 32 16 32Z" fill="#0052FF"/>
<path d="M16.0007 21.3333C19.0023 21.3333 21.7784 18.5571 21.7784 15.5556C21.7784 12.554 19.0023 9.77779 16.0007 9.77779C12.9991 9.77779 10.2229 12.554 10.2229 15.5556C10.2229 18.5571 12.9991 21.3333 16.0007 21.3333Z" fill="white"/>
<path d="M16 6C10.4771 6 6 10.4771 6 16C6 21.5229 10.4771 26 16 26C21.5229 26 26 21.5229 26 16C26 10.4771 21.5229 6 16 6ZM16 23.3333C11.95 23.3333 8.66666 20.05 8.66666 16C8.66666 11.95 11.95 8.66666 16 8.66666C20.05 8.66666 23.3333 11.95 23.3333 16C23.3333 20.05 20.05 23.3333 16 23.3333Z" fill="white"/>
</svg>