<svg width="128" height="128" viewBox="0 0 128 128" fill="none" xmlns="http://www.w3.org/2000/svg">
<rect width="128" height="128" rx="64" fill="#0052FF"/>
<path fill-rule="evenodd" clip-rule="evenodd" d="M64 104C86.0914 104 104 86.0914 104 64C104 41.9086 86.0914 24 64 24C41.9086 24 24 41.9086 24 64C24 86.0914 41.9086 104 64 104ZM52.5 52.5C49.4624 52.5 47 54.9624 47 58V70C47 73.0376 49.4624 75.5 52.5 75.5H75.5C78.5376 75.5 81 73.0376 81 70V58C81 54.9624 78.5376 52.5 75.5 52.5H52.5Z" fill="white"/>
</svg>