<svg width="32" height="32" viewBox="0 0 32 32" fill="none" xmlns="http://www.w3.org/2000/svg">
<path d="M16 32C24.8366 32 32 24.8366 32 16C32 7.16344 24.8366 0 16 0C7.16344 0 0 7.16344 0 16C0 24.8366 7.16344 32 16 32Z" fill="#000000"/>
<path d="M24 9.14286H8V22.8571H24V9.14286Z" stroke="white" stroke-width="2"/>
<path d="M15.9999 14.2844C14.9872 14.2844 14.1685 15.1031 14.1685 16.1158C14.1685 17.1284 14.9872 17.9471 15.9999 17.9471C17.0126 17.9471 17.8313 17.1284 17.8313 16.1158C17.8313 15.1031 17.0126 14.2844 15.9999 14.2844Z" fill="white"/>
</svg>