<svg width="32" height="32" viewBox="0 0 32 32" fill="none" xmlns="http://www.w3.org/2000/svg">
  <circle cx="16" cy="16" r="16" fill="#F15BB5"/>
  <g clip-path="url(#clip0_2_25)">
    <path d="M23.3333 11.2L20.5333 15.4667V15.5333L23.3333 19.7333C23.3333 19.8 23.2667 19.8 23.2 19.8H20.6667C20.6 19.8 20.5333 19.7333 20.5333 19.7333L17.6667 15.5333V15.4667L20.5333 11.2667C20.5333 11.2 20.6 11.2 20.6667 11.2H23.2C23.2667 11.2 23.3333 11.2667 23.3333 11.2Z" fill="white"/>
    <path d="M12.0667 11.2H9.13337C9.06671 11.2 9.00004 11.2667 9.00004 11.3333V19.6667C9.00004 19.7333 9.06671 19.8 9.13337 19.8H11.4C11.4667 19.8 11.5334 19.7333 11.5334 19.6667V15L13.3334 17.5333C13.3334 17.6 13.4 17.6667 13.4667 17.6667H16.0667C16.1334 17.6667 16.2 17.6 16.2 17.5333C16.2 17.5333 13.6667 14 13.6 14L16.0667 11.3333C16.0667 11.2667 16.0667 11.2 16 11.2H13.4C13.3334 11.2 13.2667 11.2667 13.2667 11.2667L11.6 13.5333V11.3333C11.6 11.2667 11.5334 11.2 11.4667 11.2H12.0667Z" fill="white"/>
  </g>
  <defs>
    <clipPath id="clip0_2_25">
      <rect width="14.4" height="8.6" fill="white" transform="translate(9 11.2)"/>
    </clipPath>
  </defs>
</svg>
