<svg width="32" height="32" viewBox="0 0 32 32" fill="none" xmlns="http://www.w3.org/2000/svg">
<path d="M16 32C24.8366 32 32 24.8366 32 16C32 7.16344 24.8366 0 16 0C7.16344 0 0 7.16344 0 16C0 24.8366 7.16344 32 16 32Z" fill="#F5F5F5"/>
<path d="M25.9994 10.2218C25.9994 10.2218 25.9994 10.2218 25.9994 10.2218C26.077 10.3023 26.1311 10.385 26.1609 10.4701C26.1906 10.5552 26.1906 10.6432 26.1609 10.7283C25.9559 11.3242 25.7039 11.9011 25.4076 12.4535C25.1113 13.0059 24.7686 13.5268 24.3832 14.0111C24.2952 14.1258 24.1839 14.1797 24.0514 14.1797C23.9189 14.1797 23.8077 14.1258 23.719 14.0111C23.6302 13.8965 23.5986 13.7708 23.6245 13.6315C23.6505 13.4923 23.7166 13.3902 23.8219 13.3248C24.243 12.9736 24.6254 12.5769 24.9682 12.134C25.3109 11.6915 25.6041 11.2154 25.8468 10.7066C25.9003 10.5807 25.9761 10.4982 26.0745 10.4591C26.1728 10.4199 26.2769 10.4199 26.3864 10.4591C26.4958 10.4982 26.5757 10.5787 26.6255 10.7007C26.6754 10.8227 26.6784 10.9467 26.6359 11.0722C26.3932 11.5815 26.1068 12.0596 25.7753 12.5061C25.4438 12.9526 25.0779 13.3658 24.6756 13.7455C24.5907 13.83 24.499 13.8731 24.4013 13.8731C24.3036 13.8731 24.2119 13.83 24.127 13.7455C24.042 13.661 24.0018 13.5688 24.0066 13.4698C24.0104 13.3709 24.0492 13.2836 24.125 13.2098C24.5424 12.7925 24.9213 12.3284 25.2612 11.8173C25.601 11.3062 25.8864 10.7599 26.117 10.1776C26.1359 10.125 26.1751 10.0898 26.2341 10.0705C26.2932 10.0512 26.3542 10.051 26.4169 10.0695C26.4796 10.0881 26.533 10.1248 26.577 10.1794C26.6209 10.2341 26.631 10.2952 26.6087 10.362C26.365 10.9845 26.0693 11.5731 25.7236 12.1273C25.3779 12.6815 24.9801 13.1903 24.5334 13.6546C24.4464 13.7408 24.3419 13.7839 24.22 13.7839C24.0981 13.7839 23.9936 13.7408 23.9067 13.6546C23.8197 13.5685 23.7772 13.4665 23.7782 13.3485C23.7792 13.2306 23.8227 13.1296 23.9086 13.0442C24.3172 12.6336 24.6887 12.1792 25.0232 11.6818C25.3577 11.1844 25.6488 10.6523 25.8975 10.0868C25.9163 10.0453 25.9444 10.0135 25.9994 10.2218Z" fill="black"/>
<path d="M24.129 16.9805C24.129 16.9805 24.1292 16.9805 24.1293 16.9805C24.2154 17.0627 24.2633 17.1535 24.2731 17.2527C24.2829 17.3518 24.2547 17.4424 24.1888 17.525C23.7819 18.0177 23.3367 18.4647 22.8529 18.8656C22.3688 19.2669 21.8529 19.6133 21.3046 19.9052C21.1889 19.9651 21.0673 19.9762 20.9399 19.9384C20.8125 19.9007 20.7243 19.8257 20.6747 19.7136C20.6251 19.6014 20.6248 19.4892 20.6735 19.3764C20.7222 19.2636 20.8096 19.1877 20.9357 19.1481C21.4451 18.8689 21.9235 18.5418 22.3713 18.1673C22.8189 17.793 23.2267 17.3753 23.5949 16.9152C23.6708 16.8195 23.7612 16.7633 23.8662 16.747C23.9713 16.7307 24.0703 16.7549 24.1633 16.8196C24.2564 16.8844 24.3076 16.9755 24.317 17.0935C24.3264 17.2113 24.2908 17.3094 24.2103 17.3879C23.8287 17.8652 23.4061 18.2975 22.9433 18.6843C22.4805 19.0713 21.9903 19.403 21.473 19.681C21.381 19.7248 21.2844 19.737 21.1828 19.7168C21.0815 19.6969 21.0006 19.6515 20.9404 19.582C20.8803 19.5124 20.8559 19.4334 20.867 19.3446C20.8783 19.2559 20.9195 19.182 20.9913 19.1226C21.4779 18.7632 21.9265 18.3528 22.338 17.8915C22.7495 17.4303 23.1177 16.9285 23.4417 16.3863C23.471 16.3372 23.5129 16.3048 23.557 16.2889C23.6013 16.2732 23.6474 16.2738 23.6954 16.2909C23.7434 16.308 23.7841 16.3403 23.8175 16.3885C23.8508 16.4366 23.8628 16.4903 23.8545 16.5497C23.8091 16.8211 23.7499 17.0675 23.6769 17.2876C23.6039 17.5081 23.5108 17.7248 23.3975 17.938C23.3303 18.0675 23.2361 18.1512 23.1152 18.1892C22.9943 18.2271 22.8819 18.215 22.7785 18.1528C22.6746 18.0911 22.6149 17.9997 22.599 17.8792C22.5828 17.7585 22.6125 17.6518 22.688 17.5599C22.7874 17.4365 22.875 17.2955 22.9511 17.1366C23.0272 16.9777 23.0823 16.8058 23.1163 16.6211C23.1254 16.5782 23.1465 16.544 23.129 16.9805Z" fill="black"/>
<path d="M12.3213 23.0019C12.3213 23.0019 12.3213 23.0019 12.3213 23.0019C12.4013 23.0795 12.484 23.1336 12.5692 23.1633C12.6543 23.193 12.7423 23.193 12.8274 23.1633C13.4232 22.9583 14.0001 22.7063 14.5525 22.41C15.105 22.1137 15.6259 21.771 16.1102 21.3855C16.2248 21.2976 16.2788 21.1863 16.2788 21.0538C16.2788 20.9213 16.2248 20.81 16.1102 20.7213C15.9956 20.6325 15.8699 20.6009 15.7306 20.6269C15.5914 20.6528 15.4892 20.7189 15.4239 20.8242C15.0727 21.2453 14.676 21.6277 14.2331 21.9705C13.7905 22.3132 13.3145 22.6065 12.8057 22.8491C12.6799 22.9026 12.5972 22.9784 12.5582 23.0768C12.5189 23.1752 12.519 23.2793 12.5581 23.3887C12.5973 23.4981 12.6779 23.578 12.7998 23.6279C12.9218 23.6777 13.0457 23.6807 13.1714 23.6383C13.6806 23.3955 14.1587 23.1092 14.6052 22.7776C15.0518 22.4461 15.4649 22.0803 15.8446 21.678C15.9292 21.593 15.9723 21.5013 15.9723 21.4036C15.9723 21.3059 15.9292 21.2142 15.8446 21.1293C15.7601 21.0443 15.6679 21.0041 15.569 21.0089C15.47 21.0127 15.3827 21.0515 15.309 21.1273C14.8916 21.5447 14.4276 21.9236 13.9164 22.2635C13.4053 22.6033 12.859 22.8887 12.2767 23.1193C12.2241 23.1382 12.1889 23.1774 12.1696 23.2364C12.1503 23.2955 12.1501 23.3565 12.1687 23.4192C12.1872 23.4819 12.2239 23.5353 12.2786 23.5793C12.3333 23.6232 12.3944 23.6333 12.4612 23.611C13.0837 23.3673 13.6722 23.0716 14.2265 22.7259C14.7807 22.3802 15.2895 21.9824 15.7538 21.5357C15.84 21.4487 15.8831 21.3442 15.8831 21.2223C15.8831 21.1004 15.84 20.9959 15.7538 20.909C15.6677 20.822 15.5657 20.7795 15.4478 20.7805C15.3299 20.7815 15.2287 20.825 15.1434 20.9109C14.7328 21.3195 14.2784 21.691 13.781 22.0255C13.2835 22.36 12.7515 22.6511 12.186 22.8998C12.1444 22.9186 12.1126 22.9467 12.3213 23.0019Z" fill="black"/>
<path d="M19.0785 24.1313C19.0785 24.1313 19.0785 24.1315 19.0785 24.1316C19.1607 24.2177 19.2515 24.2656 19.3506 24.2754C19.4498 24.2851 19.5404 24.257 19.6229 24.1911C20.1157 23.7841 20.5627 23.339 20.9635 22.8552C21.3649 22.3711 21.7112 21.8552 22.0031 21.3069C22.0631 21.1912 22.0741 21.0696 22.0363 20.9422C21.9986 20.8148 21.9236 20.7266 21.8115 20.677C21.6993 20.6274 21.5872 20.6271 21.4743 20.6758C21.3615 20.7245 21.2856 20.8119 21.246 20.938C20.9668 21.4474 20.6398 21.9259 20.2652 22.3736C19.8909 22.8213 19.4732 23.229 19.0132 23.5972C18.9175 23.6732 18.8613 23.7636 18.845 23.8686C18.8287 23.9737 18.8529 24.0727 18.9176 24.1657C18.9824 24.2587 19.0734 24.31 19.1915 24.3194C19.3093 24.3288 19.4073 24.2931 19.4858 24.2127C19.9632 23.8311 20.3955 23.4084 20.7823 22.9456C21.1692 22.4828 21.501 21.9927 21.779 21.4753C21.8228 21.3833 21.835 21.2867 21.8149 21.1851C21.795 21.0838 21.7496 21.0029 21.68 20.9427C21.6104 20.8826 21.5314 20.8582 21.4426 20.8693C21.3539 20.8806 21.28 20.9218 21.2206 20.9936C20.8613 21.4802 20.4509 21.9288 19.9895 22.3403C19.5283 22.7518 19.0265 23.12 18.4843 23.444C18.4353 23.4733 18.4029 23.5152 18.3869 23.5593C18.3712 23.6036 18.3719 23.6497 18.389 23.6976C18.406 23.7456 18.4383 23.7864 18.4865 23.8197C18.5347 23.853 18.5883 23.865 18.6477 23.8568C18.9191 23.8114 19.1655 23.7522 19.3856 23.6792C19.6061 23.6062 19.8228 23.5131 20.036 23.3998C20.1655 23.3326 20.2492 23.2384 20.2872 23.1175C20.3251 22.9966 20.313 22.8842 20.2508 22.7808C20.1892 22.6769 20.0977 22.6172 19.9772 22.6013C19.8565 22.5851 19.7498 22.6148 19.6579 22.6903C19.5345 22.7897 19.3935 22.8773 19.2346 22.9534C19.0757 23.0295 18.9038 23.0846 18.7191 23.1186C18.6761 23.1277 18.642 23.1488 18.0785 24.1313C19.0785 24.1313 19.0785 24.1313 19.0785 24.1313Z" fill="black"/>
<path d="M23.0001 12.3236C23.0001 12.3236 23.0002 12.3236 23.0003 12.3236C23.0779 12.4035 23.132 12.4863 23.1617 12.5714C23.1914 12.6566 23.1913 12.7445 23.1617 12.8297C22.9567 13.4255 22.7047 14.0024 22.4084 14.5548C22.1121 15.1073 21.7693 15.6281 21.3839 16.1125C21.2959 16.2271 21.1847 16.2811 21.0522 16.2811C20.9197 16.2811 20.8084 16.2271 20.7197 16.1125C20.6309 15.9979 20.5993 15.8722 20.6253 15.7329C20.6512 15.5937 20.7173 15.4915 20.8226 15.4262C21.2437 15.075 21.6261 14.6783 21.9689 14.2354C22.3116 13.7929 22.6048 13.3168 22.8474 12.8079C22.9009 12.6821 22.9767 12.5995 23.0751 12.5605C23.1735 12.5212 23.2776 12.5213 23.387 12.5604C23.4964 12.5995 23.5763 12.68 23.6262 12.802C23.6761 12.924 23.6791 13.048 23.6366 13.1736C23.3938 13.6829 23.1075 14.161 22.776 14.6075C22.4444 15.054 22.0786 15.4671 21.6763 15.8469C21.5914 15.9314 21.4997 15.9745 21.402 15.9745C21.3043 15.9745 21.2125 15.9314 21.1276 15.8469C21.0426 15.7624 21.0025 15.6702 21.0072 15.5712C21.011 15.4722 21.0499 15.385 21.1257 15.3112C21.5431 14.8939 21.9219 14.4298 22.2618 13.9186C22.6017 13.4075 22.8871 12.8612 23.1177 12.2789C23.1366 12.2263 23.1758 12.1911 23.2348 12.1718C23.2939 12.1525 23.3549 12.1523 23.4176 12.1709C23.4803 12.1894 23.5337 12.2262 23.5777 12.2808C23.6216 12.3355 23.6317 12.3966 23.6094 12.4634C23.3657 13.0859 23.07 13.6745 22.7243 14.2287C22.3786 14.7829 21.9808 15.2917 21.5341 15.756C21.4471 15.8422 21.3426 15.8853 21.2207 15.8853C21.0988 15.8853 20.9943 15.8422 20.9074 15.756C20.8204 15.6699 20.7779 15.5679 20.7789 15.4499C20.7798 15.332 20.8234 15.231 20.9093 15.1457C21.3179 14.735 21.6894 14.2807 22.0239 13.7832C22.3584 13.2858 22.6495 12.7537 22.8982 12.1882C22.917 12.1467 22.9451 12.1149 23.0001 12.3236Z" fill="black"/>
</svg>