<svg width="32" height="32" viewBox="0 0 32 32" fill="none" xmlns="http://www.w3.org/2000/svg">
<path d="M16 32C24.8366 32 32 24.8366 32 16C32 7.16344 24.8366 0 16 0C7.16344 0 0 7.16344 0 16C0 24.8366 7.16344 32 16 32Z" fill="white"/>
<path d="M25.0526 7.11304L16.955 13.5741L18.3257 9.71466L25.0526 7.11304Z" fill="#E2761B" stroke="#E2761B" stroke-width="0.1" stroke-linecap="round" stroke-linejoin="round"/>
<path d="M7.1084 7.11304L15.1539 13.623L13.8747 9.71466L7.1084 7.11304Z" fill="#E4761B" stroke="#E4761B" stroke-width="0.1" stroke-linecap="round" stroke-linejoin="round"/>
<path d="M22.178 19.7086L19.9951 22.7567L24.5617 23.9379L25.8408 19.7698L22.178 19.7086Z" fill="#E4761B" stroke="#E4761B" stroke-width="0.1" stroke-linecap="round" stroke-linejoin="round"/>
<path d="M6.46875 19.7698L7.73865 23.9379L12.3052 22.7567L10.1224 19.7086L6.46875 19.7698Z" fill="#E4761B" stroke="#E4761B" stroke-width="0.1" stroke-linecap="round" stroke-linejoin="round"/>
<path d="M11.9599 14.7554L10.8154 16.9383L15.3422 17.1219L15.1184 12.2258L11.9599 14.7554Z" fill="#E4761B" stroke="#E4761B" stroke-width="0.1" stroke-linecap="round" stroke-linejoin="round"/>
<path d="M20.2947 14.7554L17.0973 12.1766L16.955 17.1219L21.4818 16.9383L20.2947 14.7554Z" fill="#E4761B" stroke="#E4761B" stroke-width="0.1" stroke-linecap="round" stroke-linejoin="round"/>
<path d="M12.3047 22.7566L15.0057 21.3254L12.7008 19.8003L12.3047 22.7566Z" fill="#E4761B" stroke="#E4761B" stroke-width="0.1" stroke-linecap="round" stroke-linejoin="round"/>
<path d="M17.1465 21.3254L19.8474 22.7566L19.4515 19.8003L17.1465 21.3254Z" fill="#E4761B" stroke="#E4761B" stroke-width="0.1" stroke-linecap="round" stroke-linejoin="round"/>
<path d="M19.8474 22.7566L17.1465 21.3254L17.4395 23.2327L17.4089 23.8884L19.8474 22.7566Z" fill="#D7C1B3" stroke="#D7C1B3" stroke-width="0.1" stroke-linecap="round" stroke-linejoin="round"/>
<path d="M12.3047 22.7566L14.7432 23.8884L14.7222 23.2327L15.0057 21.3254L12.3047 22.7566Z" fill="#D7C1B3" stroke="#D7C1B3" stroke-width="0.1" stroke-linecap="round" stroke-linejoin="round"/>
<path d="M14.8027 18.4806L12.5894 17.8249L14.1146 17.0158L14.8027 18.4806Z" fill="#233447" stroke="#233447" stroke-width="0.1" stroke-linecap="round" stroke-linejoin="round"/>
<path d="M17.3496 18.4806L18.0376 17.0158L19.5732 17.8249L17.3496 18.4806Z" fill="#233447" stroke="#233447" stroke-width="0.1" stroke-linecap="round" stroke-linejoin="round"/>
<path d="M12.3046 22.7567L12.7203 19.7086L10.1221 19.7698L12.3046 22.7567Z" fill="#CD6116" stroke="#CD6116" stroke-width="0.1" stroke-linecap="round" stroke-linejoin="round"/>
<path d="M19.4805 19.7086L19.8961 22.7567L22.0787 19.7698L19.4805 19.7086Z" fill="#CD6116" stroke="#CD6116" stroke-width="0.1" stroke-linecap="round" stroke-linejoin="round"/>
<path d="M21.4818 16.9382L16.955 17.1218L17.35 18.4805L18.038 17.0157L19.5736 17.8248L21.4818 16.9382Z" fill="#CD6116" stroke="#CD6116" stroke-width="0.1" stroke-linecap="round" stroke-linejoin="round"/>
<path d="M12.5899 17.8248L14.1255 17.0157L14.8135 18.4805L15.2086 17.1218L10.6818 16.9382L12.5899 17.8248Z" fill="#CD6116" stroke="#CD6116" stroke-width="0.1" stroke-linecap="round" stroke-linejoin="round"/>
<path d="M10.6816 16.9382L12.7007 19.8002L12.5896 17.8248L10.6816 16.9382Z" fill="#E4751F" stroke="#E4751F" stroke-width="0.1" stroke-linecap="round" stroke-linejoin="round"/>
<path d="M19.5733 17.8248L19.4517 19.8002L21.4813 16.9382L19.5733 17.8248Z" fill="#E4751F" stroke="#E4751F" stroke-width="0.1" stroke-linecap="round" stroke-linejoin="round"/>
<path d="M15.2087 17.1218L14.8135 18.4805L15.3005 21.0101L15.4632 17.1218L15.2087 17.1218Z" fill="#E4751F" stroke="#E4751F" stroke-width="0.1" stroke-linecap="round" stroke-linejoin="round"/>
<path d="M16.9548 17.1218L16.7109 17.1116L16.8531 21.0101L17.3502 18.4805L16.9548 17.1218Z" fill="#E4751F" stroke="#E4751F" stroke-width="0.1" stroke-linecap="round" stroke-linejoin="round"/>
<path d="M17.3496 18.4805L16.8525 21.0101L17.2486 21.3254L19.4517 19.8003L19.5733 17.8248L17.3496 18.4805Z" fill="#F6851B" stroke="#F6851B" stroke-width="0.1" stroke-linecap="round" stroke-linejoin="round"/>
<path d="M12.5894 17.8248L12.7005 19.8003L14.9033 21.3254L15.2994 21.0101L14.8027 18.4805L12.5894 17.8248Z" fill="#F6851B" stroke="#F6851B" stroke-width="0.1" stroke-linecap="round" stroke-linejoin="round"/>
<path d="M17.4094 23.8884L17.44 23.2327L17.1674 23.0083H14.9841L14.7221 23.2327L14.7432 23.8884L12.3047 22.7566L13.2624 23.5452L14.9538 24.6974H17.195L18.8968 23.5452L19.8545 22.7566L17.4094 23.8884Z" fill="#C0AD9E" stroke="#C0AD9E" stroke-width="0.1" stroke-linecap="round" stroke-linejoin="round"/>
<path d="M17.1479 21.3254L16.7518 21.0101H15.2995L14.9034 21.3254L14.7227 23.2326L14.9842 23.0083H17.1675L17.4401 23.2326L17.1479 21.3254Z" fill="#161616" stroke="#161616" stroke-width="0.1" stroke-linecap="round" stroke-linejoin="round"/>
<path d="M25.3582 13.481L26.0058 9.7739L25.0528 7.11304L17.1465 13.451L20.2945 14.7554L24.4388 15.9774L25.3276 14.9028L24.9921 14.6579L25.5805 14.1683L25.1639 13.8434L25.7524 13.4468L25.3582 13.481Z" fill="#763D16" stroke="#763D16" stroke-width="0.1" stroke-linecap="round" stroke-linejoin="round"/>
<path d="M6.15625 9.7739L6.8039 13.481L6.39968 13.4468L6.98818 13.8434L6.58165 14.1683L7.17014 14.6579L6.83467 14.9028L7.71292 15.9774L11.8571 14.7554L15.0051 13.451L7.09888 7.11304L6.15625 9.7739Z" fill="#763D16" stroke="#763D16" stroke-width="0.1" stroke-linecap="round" stroke-linejoin="round"/>
<path d="M24.4389 15.9775L20.295 14.7554L21.4821 16.9383L19.4525 19.8002L22.0784 19.7697H25.8414L24.4389 15.9775Z" fill="#F6851B" stroke="#F6851B" stroke-width="0.1" stroke-linecap="round" stroke-linejoin="round"/>
<path d="M11.8573 14.7554L7.71338 15.9775L6.32129 19.7697H10.0738L12.7002 19.8002L10.6705 16.9383L11.8573 14.7554Z" fill="#F6851B" stroke="#F6851B" stroke-width="0.1" stroke-linecap="round" stroke-linejoin="round"/>
<path d="M16.9549 17.1218L17.1465 13.451L18.3257 9.71466H13.8748L15.0051 13.451L15.2087 17.1218L15.2994 17.1322L15.3 21.0102L16.7518 21.0102L17.1582 21.0102L17.3502 17.1322L16.9549 17.1218Z" fill="#F6851B" stroke="#F6851B" stroke-width="0.1" stroke-linecap="round" stroke-linejoin="round"/>
</svg>