<svg width="128" height="128" viewBox="0 0 128 128" fill="none" xmlns="http://www.w3.org/2000/svg">
<rect width="128" height="128" rx="64" fill="#FFEED6"/>
<path d="M105.362 41.1543L69.0525 64.8761L76.0605 47.2658L105.362 41.1543Z" fill="#E2761B" stroke="#E2761B" stroke-width="0.100306" stroke-linecap="round" stroke-linejoin="round"/>
<path d="M22.601 41.1543L58.7121 65.0358L51.9395 47.2658L22.601 41.1543Z" fill="#E4761B" stroke="#E4761B" stroke-width="0.100306" stroke-linecap="round" stroke-linejoin="round"/>
<path d="M91.477 82.9268L81.8359 97.9608L102.093 103.755L108.119 83.2463L91.477 82.9268Z" fill="#E4761B" stroke="#E4761B" stroke-width="0.100306" stroke-linecap="round" stroke-linejoin="round"/>
<path d="M19.9141 83.2463L25.9075 103.755L46.1647 97.9608L36.5235 82.9268L19.9141 83.2463Z" fill="#E4761B" stroke="#E4761B" stroke-width="0.100306" stroke-linecap="round" stroke-linejoin="round"/>
<path d="M44.7685 62.1607L38.6571 71.8756L58.7571 72.9547L57.9967 51.1008L44.7685 62.1607Z" fill="#E4761B" stroke="#E4761B" stroke-width="0.100306" stroke-linecap="round" stroke-linejoin="round"/>
<path d="M83.2314 62.1607L69.8435 50.9411L69.0525 72.9547L89.1525 71.8756L83.2314 62.1607Z" fill="#E4761B" stroke="#E4761B" stroke-width="0.100306" stroke-linecap="round" stroke-linejoin="round"/>
<path d="M46.1647 97.9607L57.2363 91.809L47.6661 83.4058L46.1647 97.9607Z" fill="#E4761B" stroke="#E4761B" stroke-width="0.100306" stroke-linecap="round" stroke-linejoin="round"/>
<path d="M70.7635 91.809L81.8351 97.9607L80.3337 83.4058L70.7635 91.809Z" fill="#E4761B" stroke="#E4761B" stroke-width="0.100306" stroke-linecap="round" stroke-linejoin="round"/>
<path d="M81.8357 97.9608L70.7642 91.809L71.8432 100.559L71.7633 103.595L81.8357 97.9608Z" fill="#D7C1B3" stroke="#D7C1B3" stroke-width="0.100306" stroke-linecap="round" stroke-linejoin="round"/>
<path d="M46.1641 97.9608L56.2365 103.595L56.1939 100.559L57.2356 91.809L46.1641 97.9608Z" fill="#D7C1B3" stroke="#D7C1B3" stroke-width="0.100306" stroke-linecap="round" stroke-linejoin="round"/>
<path d="M56.381 77.294L47.1523 74.2581L53.5921 70.7161L56.381 77.294Z" fill="#233447" stroke="#233447" stroke-width="0.100306" stroke-linecap="round" stroke-linejoin="round"/>
<path d="M71.6191 77.294L74.408 70.7161L80.8478 74.2581L71.6191 77.294Z" fill="#233447" stroke="#233447" stroke-width="0.100306" stroke-linecap="round" stroke-linejoin="round"/>
<path d="M46.1631 97.9607L47.7442 82.9267L36.523 83.2463L46.1631 97.9607Z" fill="#CD6116" stroke="#CD6116" stroke-width="0.100306" stroke-linecap="round" stroke-linejoin="round"/>
<path d="M80.256 82.9267L81.8371 97.9607L91.4772 83.2463L80.256 82.9267Z" fill="#CD6116" stroke="#CD6116" stroke-width="0.100306" stroke-linecap="round" stroke-linejoin="round"/>
<path d="M89.1546 71.8755L69.0546 72.9546L71.6233 77.2941L74.4123 70.7161L80.852 74.2581L89.1546 71.8755Z" fill="#CD6116" stroke="#CD6116" stroke-width="0.100306" stroke-linecap="round" stroke-linejoin="round"/>
<path d="M47.1525 74.2581L53.5922 70.7161L56.3811 77.2941L58.9498 72.9546L38.85 71.8755L47.1525 74.2581Z" fill="#CD6116" stroke="#CD6116" stroke-width="0.100306" stroke-linecap="round" stroke-linejoin="round"/>
<path d="M38.8491 71.8755L47.6645 83.4058L47.1534 74.2581L38.8491 71.8755Z" fill="#E4751F" stroke="#E4751F" stroke-width="0.100306" stroke-linecap="round" stroke-linejoin="round"/>
<path d="M80.8509 74.2581L80.3398 83.4058L89.1552 71.8755L80.8509 74.2581Z" fill="#E4751F" stroke="#E4751F" stroke-width="0.100306" stroke-linecap="round" stroke-linejoin="round"/>
<path d="M58.9489 72.9547L56.3802 77.2942L59.4996 89.5863L60.3706 73.394L58.9489 72.9547Z" fill="#E4751F" stroke="#E4751F" stroke-width="0.100306" stroke-linecap="round" stroke-linejoin="round"/>
<path d="M69.0521 72.9547L67.6523 73.3557L68.4533 89.5863L71.6127 77.2942L69.0521 72.9547Z" fill="#E4751F" stroke="#E4751F" stroke-width="0.100306" stroke-linecap="round" stroke-linejoin="round"/>
<path d="M71.6216 77.294L68.4622 89.5862L70.7641 91.809L80.3343 83.4057L80.8453 74.258L71.6216 77.294Z" fill="#F6851B" stroke="#F6851B" stroke-width="0.100306" stroke-linecap="round" stroke-linejoin="round"/>
<path d="M47.1528 74.258L47.6639 83.4057L57.2341 91.809L59.5359 89.5862L56.3765 77.294L47.1528 74.258Z" fill="#F6851B" stroke="#F6851B" stroke-width="0.100306" stroke-linecap="round" stroke-linejoin="round"/>
<path d="M71.7642 103.595L71.845 100.559L70.8444 99.6787H57.1552L56.1942 100.559L56.2367 103.595L46.1643 97.9608L51.0872 101.998L57.0714 106.138H70.9285L76.9127 101.998L81.8357 97.9608L71.7642 103.595Z" fill="#C0AD9E" stroke="#C0AD9E" stroke-width="0.100306" stroke-linecap="round" stroke-linejoin="round"/>
<path d="M70.7644 91.8089L68.4626 89.5862H59.5378L57.236 91.8089L56.1943 100.559L57.1552 99.6786H70.8444L71.8451 100.559L70.7644 91.8089Z" fill="#161616" stroke="#161616" stroke-width="0.100306" stroke-linecap="round" stroke-linejoin="round"/>
<path d="M106.165 58.6987L109.236 43.7755L105.362 41.1543L70.7644 64.0761L83.2326 62.1606L101.933 71.1978L106.362 65.9152L104.486 64.5552L107.485 61.8356L105.164 60.0596L108.163 57.8176L106.165 58.6987Z" fill="#763D16" stroke="#763D16" stroke-width="0.100306" stroke-linecap="round" stroke-linejoin="round"/>
<path d="M18.7637 43.7755L21.8348 58.6987L19.7981 57.8176L22.7979 60.0596L20.5146 61.8356L23.5144 64.5552L21.6383 65.9152L26.0673 71.1978L44.7682 62.1606L57.2363 64.0761L22.6391 41.1543L18.7637 43.7755Z" fill="#763D16" stroke="#763D16" stroke-width="0.100306" stroke-linecap="round" stroke-linejoin="round"/>
<path d="M101.934 71.1978L83.2331 62.1606L89.1541 71.8756L80.3387 83.4058L91.4799 83.2463H108.12L101.934 71.1978Z" fill="#F6851B" stroke="#F6851B" stroke-width="0.100306" stroke-linecap="round" stroke-linejoin="round"/>
<path d="M44.7682 62.1606L26.0677 71.1978L19.9141 83.2463H36.5235L47.6646 83.4058L38.8493 71.8756L44.7682 62.1606Z" fill="#F6851B" stroke="#F6851B" stroke-width="0.100306" stroke-linecap="round" stroke-linejoin="round"/>
<path d="M69.0531 72.9547L70.7651 64.0761L76.0631 47.2659H51.9395L57.2375 64.0761L58.9496 72.9547L59.5028 73.3939L59.5368 89.5862H68.4616L68.4956 73.3939L69.0531 72.9547Z" fill="#F6851B" stroke="#F6851B" stroke-width="0.100306" stroke-linecap="round" stroke-linejoin="round"/>
</svg>