<svg width="100" height="100" viewBox="0 0 100 100" fill="none" xmlns="http://www.w3.org/2000/svg">
  <circle cx="50" cy="50" r="50" fill="#FFFFFF"/>
  <path d="M83.1884 17.1863L54.7258 36.919L60.0439 25.4158L83.1884 17.1863Z" fill="#E17726" stroke="#E17726" stroke-width="0.24" stroke-linecap="round" stroke-linejoin="round"/>
  <path d="M16.8115 17.1863L44.9833 37.1097L39.9554 25.4158L16.8115 17.1863Z" fill="#E27625" stroke="#E27625" stroke-width="0.24" stroke-linecap="round" stroke-linejoin="round"/>
  <path d="M72.1598 67.0918L64.1211 80.1841L80.8307 85.1673L85.783 67.3778L72.1598 67.0918Z" fill="#E27625" stroke="#E27625" stroke-width="0.24" stroke-linecap="round" stroke-linejoin="round"/>
  <path d="M14.2651 67.3778L19.1692 85.1673L35.8307 80.1841L27.8407 67.0918L14.2651 67.3778Z" fill="#E27625" stroke="#E27625" stroke-width="0.24" stroke-linecap="round" stroke-linejoin="round"/>
  <path d="M34.8303 46.3325L30.3613 54.6073L46.8303 55.5584L46.2173 37.8683L34.8303 46.3325Z" fill="#E27625" stroke="#E27625" stroke-width="0.24" stroke-linecap="round" stroke-linejoin="round"/>
  <path d="M65.1703 46.3324L53.5964 37.678L53.1697 55.5584L69.6392 54.6072L65.1703 46.3324Z" fill="#E27625" stroke="#E27625" stroke-width="0.24" stroke-linecap="round" stroke-linejoin="round"/>
  <path d="M35.8303 80.1841L45.7874 74.9658L37.1544 67.5211L35.8303 80.1841Z" fill="#E27625" stroke="#E27625" stroke-width="0.24" stroke-linecap="round" stroke-linejoin="round"/>
  <path d="M54.2124 74.9658L64.1211 80.1841L62.8456 67.5211L54.2124 74.9658Z" fill="#E27625" stroke="#E27625" stroke-width="0.24" stroke-linecap="round" stroke-linejoin="round"/>
  <path d="M64.1211 80.1841L54.2125 74.9658L55.0723 82.1924L54.9761 84.836L64.1211 80.1841Z" fill="#D5BFB2" stroke="#D5BFB2" stroke-width="0.24" stroke-linecap="round" stroke-linejoin="round"/>
  <path d="M35.8307 80.1841L45.0239 84.836L44.9758 82.1924L45.7874 74.9658L35.8307 80.1841Z" fill="#D5BFB2" stroke="#D5BFB2" stroke-width="0.24" stroke-linecap="round" stroke-linejoin="round"/>
  <path d="M45.2588 62.4416L36.9629 59.7504L42.7395 56.8205L45.2588 62.4416Z" fill="#233447" stroke="#233447" stroke-width="0.24" stroke-linecap="round" stroke-linejoin="round"/>
  <path d="M54.7415 62.4416L57.2605 56.8205L63.0854 59.7504L54.7415 62.4416Z" fill="#233447" stroke="#233447" stroke-width="0.24" stroke-linecap="round" stroke-linejoin="round"/>
  <path d="M35.8303 80.1841L37.2021 67.0918L27.8401 67.3778L35.8303 80.1841Z" fill="#CC6228" stroke="#CC6228" stroke-width="0.24" stroke-linecap="round" stroke-linejoin="round"/>
  <path d="M62.7979 67.0918L64.1211 80.1841L72.1598 67.3778L62.7979 67.0918Z" fill="#CC6228" stroke="#CC6228" stroke-width="0.24" stroke-linecap="round" stroke-linejoin="round"/>
  <path d="M69.6392 54.6074L53.1697 55.5585L54.7416 62.4418L57.2606 56.8207L63.0854 59.7507L69.6392 54.6074Z" fill="#CC6228" stroke="#CC6228" stroke-width="0.24" stroke-linecap="round" stroke-linejoin="round"/>
  <path d="M36.9629 59.7507L42.7395 56.8207L45.2584 62.4418L46.8304 55.5585L30.3613 54.6074L36.9629 59.7507Z" fill="#CC6228" stroke="#CC6228" stroke-width="0.24" stroke-linecap="round" stroke-linejoin="round"/>
  <path d="M30.3613 54.6074L37.1548 67.5212L36.9629 59.7507L30.3613 54.6074Z" fill="#E27525" stroke="#E27525" stroke-width="0.24" stroke-linecap="round" stroke-linejoin="round"/>
  <path d="M63.0854 59.7507L62.8462 67.5212L69.6396 54.6074L63.0854 59.7507Z" fill="#E27525" stroke="#E27525" stroke-width="0.24" stroke-linecap="round" stroke-linejoin="round"/>
  <path d="M46.8299 55.5585L45.2578 62.4418L47.2126 73.2003L47.6875 58.6798L46.8299 55.5585Z" fill="#E27525" stroke="#E27525" stroke-width="0.24" stroke-linecap="round" stroke-linejoin="round"/>
  <path d="M53.1697 55.5585L52.3604 58.632L52.7875 73.2003L54.7422 62.4418L53.1697 55.5585Z" fill="#E27525" stroke="#E27525" stroke-width="0.24" stroke-linecap="round" stroke-linejoin="round"/>
  <path d="M54.7426 62.4418L52.7878 73.2003L54.2128 74.9659L62.8461 67.5212L63.0851 59.7507L54.7426 62.4418Z" fill="#F5841F" stroke="#F5841F" stroke-width="0.24" stroke-linecap="round" stroke-linejoin="round"/>
  <path d="M36.9629 59.7507L37.1546 67.5212L45.7878 74.9659L47.2127 73.2003L45.2579 62.4418L36.9629 59.7507Z" fill="#F5841F" stroke="#F5841F" stroke-width="0.24" stroke-linecap="round" stroke-linejoin="round"/>
  <path d="M54.9756 84.8361L55.0717 82.1924L54.2602 81.4794H45.7397L44.9757 82.1924L45.0239 84.8361L35.8306 80.1841L39.5242 83.1616L45.6436 87.4553H54.3087L60.4752 83.1616L64.1211 80.1841L54.9756 84.8361Z" fill="#C0AC9D" stroke="#C0AC9D" stroke-width="0.24" stroke-linecap="round" stroke-linejoin="round"/>
  <path d="M54.2124 74.9658L52.7875 73.2002H47.2126L45.7876 74.9658L44.9761 82.1923L45.7401 81.4794H54.2605L55.0721 82.1923L54.2124 74.9658Z" fill="#161616" stroke="#161616" stroke-width="0.24" stroke-linecap="round" stroke-linejoin="round"/>
  <path d="M84.2142 39.1097L86.883 25.6539L83.1892 17.1861L54.2126 36.1559L65.1704 46.3323L80.4519 51.0796L83.7055 46.522L82.2323 45.4754L84.4538 43.3344L82.664 42.0017L84.8856 40.2039L84.2142 39.1097Z" fill="#763E1A" stroke="#763E1A" stroke-width="0.24" stroke-linecap="round" stroke-linejoin="round"/>
  <path d="M13.117 25.6539L15.7858 39.1097L15.0666 40.2039L17.3361 42.0017L15.5472 43.3344L17.7687 45.4754L16.2946 46.522L19.5481 51.0796L34.8297 46.3323L45.7875 36.1559L16.8108 17.1861L13.117 25.6539Z" fill="#763E1A" stroke="#763E1A" stroke-width="0.24" stroke-linecap="round" stroke-linejoin="round"/>
  <path d="M80.4522 51.0793L65.1707 46.332L69.6396 54.6068L62.8462 67.5205L72.1603 67.3775H85.783L80.4522 51.0793Z" fill="#F5841F" stroke="#F5841F" stroke-width="0.24" stroke-linecap="round" stroke-linejoin="round"/>
  <path d="M34.8294 46.332L19.5478 51.0793L14.2651 67.3775H27.8407L37.1546 67.5205L30.3612 54.6068L34.8294 46.332Z" fill="#F5841F" stroke="#F5841F" stroke-width="0.24" stroke-linecap="round" stroke-linejoin="round"/>
  <path d="M53.1697 55.5582L54.213 36.1556L60.0436 25.4155H39.9568L45.7874 36.1556L46.8307 55.5582L47.1625 58.7271L47.2106 73.2L52.7876 73.2L52.8838 58.7271L53.1697 55.5582Z" fill="#F5841F" stroke="#F5841F" stroke-width="0.24" stroke-linecap="round" stroke-linejoin="round"/>
</svg>