<svg width="26" height="24" viewBox="0 0 26 24" fill="none" xmlns="http://www.w3.org/2000/svg">
<path d="M24.6095 1L14.5048 8.36357L16.2988 4.35458L24.6095 1Z" fill="#E17726" stroke="#E17726" stroke-width="0.25" stroke-linecap="round" stroke-linejoin="round"/>
<path d="M1.39087 1L11.402 8.44276L9.70156 4.35458L1.39087 1Z" fill="#E27625" stroke="#E27625" stroke-width="0.25" stroke-linecap="round" stroke-linejoin="round"/>
<path d="M21.0661 17.0007L18.4717 20.6948L24.0221 22.1154L25.6055 17.1044L21.0661 17.0007Z" fill="#E27625" stroke="#E27625" stroke-width="0.25" stroke-linecap="round" stroke-linejoin="round"/>
<path d="M0.408203 17.1044L1.97859 22.1154L7.52895 20.6948L4.93457 17.0007L0.408203 17.1044Z" fill="#E27625" stroke="#E27625" stroke-width="0.25" stroke-linecap="round" stroke-linejoin="round"/>
<path d="M7.23729 10.7793L5.70703 12.9782L11.1889 13.2114L11.012 7.31641L7.23729 10.7793Z" fill="#E27625" stroke="#E27625" stroke-width="0.25" stroke-linecap="round" stroke-linejoin="round"/>
<path d="M18.7627 10.7798L14.9304 7.23682L14.8096 13.212L20.2914 12.9787L18.7627 10.7798Z" fill="#E27625" stroke="#E27625" stroke-width="0.25" stroke-linecap="round" stroke-linejoin="round"/>
<path d="M7.52904 20.6953L10.8708 19.1969L8.021 17.1367L7.52904 20.6953Z" fill="#E27625" stroke="#E27625" stroke-width="0.25" stroke-linecap="round" stroke-linejoin="round"/>
<path d="M15.1294 19.1969L18.4712 20.6953L17.9792 17.1367L15.1294 19.1969Z" fill="#E27625" stroke="#E27625" stroke-width="0.25" stroke-linecap="round" stroke-linejoin="round"/>
<path d="M18.4712 20.6951L15.1294 19.1967L15.4067 21.1793L15.3774 22.0377L18.4712 20.6951Z" fill="#D5BFB2" stroke="#D5BFB2" stroke-width="0.25" stroke-linecap="round" stroke-linejoin="round"/>
<path d="M7.52887 20.6951L10.6227 22.0377L10.6033 21.1793L10.8707 19.1967L7.52887 20.6951Z" fill="#D5BFB2" stroke="#D5BFB2" stroke-width="0.25" stroke-linecap="round" stroke-linejoin="round"/>
<path d="M10.6813 15.7695L7.93555 15.0199L9.84609 14.1846L10.6813 15.7695Z" fill="#233447" stroke="#233447" stroke-width="0.25" stroke-linecap="round" stroke-linejoin="round"/>
<path d="M15.3188 15.7695L16.154 14.1846L18.0743 15.0199L15.3188 15.7695Z" fill="#233447" stroke="#233447" stroke-width="0.25" stroke-linecap="round" stroke-linejoin="round"/>
<path d="M7.52918 20.6948L8.04091 17.0007L4.93457 17.1044L7.52918 20.6948Z" fill="#CC6228" stroke="#CC6228" stroke-width="0.25" stroke-linecap="round" stroke-linejoin="round"/>
<path d="M17.9599 17.0007L18.4717 20.6948L21.0663 17.1044L17.9599 17.0007Z" fill="#CC6228" stroke="#CC6228" stroke-width="0.25" stroke-linecap="round" stroke-linejoin="round"/>
<path d="M20.2919 12.9785L14.81 13.2118L15.3199 15.7701L16.1551 14.1852L18.0754 15.0205L20.2919 12.9785Z" fill="#CC6228" stroke="#CC6228" stroke-width="0.25" stroke-linecap="round" stroke-linejoin="round"/>
<path d="M7.93586 15.0205L9.8561 14.1852L10.6814 15.7701L11.1913 13.2118L5.70938 12.9785L7.93586 15.0205Z" fill="#CC6228" stroke="#CC6228" stroke-width="0.25" stroke-linecap="round" stroke-linejoin="round"/>
<path d="M5.70898 12.9785L8.02038 17.1366L7.93546 15.0205L5.70898 12.9785Z" fill="#E27525" stroke="#E27525" stroke-width="0.25" stroke-linecap="round" stroke-linejoin="round"/>
<path d="M18.0757 15.0205L17.9811 17.1366L20.2925 12.9785L18.0757 15.0205Z" fill="#E27525" stroke="#E27525" stroke-width="0.25" stroke-linecap="round" stroke-linejoin="round"/>
<path d="M11.1911 13.2112L10.6812 15.7695L11.319 18.9351L11.4592 14.8281L11.1911 13.2112Z" fill="#E27525" stroke="#E27525" stroke-width="0.25" stroke-linecap="round" stroke-linejoin="round"/>
<path d="M14.8091 13.2112L14.5508 14.8182L14.6812 18.9351L15.3189 15.7695L14.8091 13.2112Z" fill="#E27525" stroke="#E27525" stroke-width="0.25" stroke-linecap="round" stroke-linejoin="round"/>
<path d="M15.3192 15.7697L14.6815 18.9353L15.1296 19.1974L17.9794 17.1371L18.074 15.021L15.3192 15.7697Z" fill="#F5841F" stroke="#F5841F" stroke-width="0.25" stroke-linecap="round" stroke-linejoin="round"/>
<path d="M7.93555 15.021L8.02046 17.1371L10.8702 19.1974L11.3183 18.9353L10.6806 15.7697L7.93555 15.021Z" fill="#F5841F" stroke="#F5841F" stroke-width="0.25" stroke-linecap="round" stroke-linejoin="round"/>
<path d="M15.3775 22.0372L15.4069 21.1789L15.1492 20.9571H10.8509L10.6033 21.1789L10.6227 22.0372L7.52885 20.6945L8.5293 21.5179L10.8212 23.0001H15.1689L17.4705 21.5179L18.4709 20.6945L15.3775 22.0372Z" fill="#C0AC9D" stroke="#C0AC9D" stroke-width="0.25" stroke-linecap="round" stroke-linejoin="round"/>
<path d="M15.1299 19.1968L14.6818 18.9348H11.3184L10.8703 19.1968L10.6029 21.1795L10.8504 20.9576H15.1488L15.4064 21.1795L15.1299 19.1968Z" fill="#161616" stroke="#161616" stroke-width="0.25" stroke-linecap="round" stroke-linejoin="round"/>
<path d="M24.9713 8.5309L25.8008 4.81636L24.6095 1L15.1299 7.90992L18.7626 10.78L23.934 12.2232L25.0693 10.9384L24.5845 10.5858L25.3737 9.8809L24.7874 9.42174L25.5767 8.82965L24.9713 8.5309Z" fill="#763E1A" stroke="#763E1A" stroke-width="0.25" stroke-linecap="round" stroke-linejoin="round"/>
<path d="M0.199219 4.81636L1.02878 8.5309L0.413342 8.82965L1.21235 9.42174L0.626023 9.8809L1.41524 10.5858L0.930405 10.9384L2.06566 12.2232L7.23711 10.78L10.8699 7.90992L1.3903 1L0.199219 4.81636Z" fill="#763E1A" stroke="#763E1A" stroke-width="0.25" stroke-linecap="round" stroke-linejoin="round"/>
<path d="M23.9341 12.2236L18.7626 10.7803L20.2914 12.9792L17.9799 17.1373L21.0659 17.1048H25.6054L23.9341 12.2236Z" fill="#F5841F" stroke="#F5841F" stroke-width="0.25" stroke-linecap="round" stroke-linejoin="round"/>
<path d="M7.23721 10.7803L2.06575 12.2236L0.40625 17.1048H4.93456L8.02064 17.1373L5.70924 12.9792L7.23721 10.7803Z" fill="#F5841F" stroke="#F5841F" stroke-width="0.25" stroke-linecap="round" stroke-linejoin="round"/>
<path d="M14.8105 13.2114L15.1302 7.90993L16.2992 4.35449H9.70117L10.8702 7.90993L11.1899 13.2114L11.3184 14.837V18.9351H14.682L14.7017 14.837L14.8105 13.2114Z" fill="#F5841F" stroke="#F5841F" stroke-width="0.25" stroke-linecap="round" stroke-linejoin="round"/>
</svg>