<svg width="32" height="32" viewBox="0 0 32 32" fill="none" xmlns="http://www.w3.org/2000/svg">
<path d="M16 32C24.8366 32 32 24.8366 32 16C32 7.16344 24.8366 0 16 0C7.16344 0 0 7.16344 0 16C0 24.8366 7.16344 32 16 32Z" fill="#10BB35"/>
<path d="M16.046 7.00006C12.8753 7.00006 10.2961 9.09636 10.2961 11.6878C10.2961 14.2793 12.8753 16.3756 16.046 16.3756C19.2166 16.3756 21.7958 14.2793 21.7958 11.6878C21.7958 9.09636 19.2166 7.00006 16.046 7.00006ZM16.046 13.5916C14.6245 13.5916 13.4703 12.7358 13.4703 11.6878C13.4703 10.6398 14.6245 9.78406 16.046 9.78406C17.4674 9.78406 18.6217 10.6398 18.6217 11.6878C18.6217 12.7358 17.4674 13.5916 16.046 13.5916Z" fill="white"/>
<path d="M10.8921 15.4785C10.766 15.5372 10.6343 15.5867 10.4982 15.6272C8.42275 16.2652 7.05122 18.1587 7.05122 20.3515C7.05122 23.0553 9.25922 25.263 12.0423 25.263C14.7649 25.263 16.946 23.1544 17.0323 20.539L17.0376 20.3515C17.0376 20.3515 17.0376 17.7261 16.0541 15.9058C15.0705 14.0855 12.9617 14.2657 12.9617 14.2657C12.9617 14.2657 12.2251 14.3513 11.2613 14.8058C11.0884 14.8904 10.9344 14.9841 10.7858 15.0833L10.8921 15.4785ZM9.71661 22.0749C8.60333 22.0749 7.70061 21.2327 7.70061 20.1801C7.70061 19.1275 8.60333 18.2853 9.71661 18.2853C10.8298 18.2853 11.7326 19.1275 11.7326 20.1801C11.7326 21.2327 10.8298 22.0749 9.71661 22.0749Z" fill="white"/>
<path d="M21.7058 15.6272C21.5698 15.5867 21.438 15.5372 21.3119 15.4785L21.4183 15.0833C21.2697 14.9841 21.1157 14.8904 20.9428 14.8058C19.979 14.3513 19.2424 14.2657 19.2424 14.2657C19.2424 14.2657 17.1336 14.0855 16.15 15.9058C15.1665 17.7261 15.1665 20.3515 15.1665 20.3515L15.1718 20.539C15.2581 23.1544 17.4392 25.263 20.1617 25.263C22.9448 25.263 25.1529 23.0553 25.1529 20.3515C25.1529 18.1587 23.7813 16.2652 21.7058 15.6272ZM22.4875 20.1801C22.4875 21.2327 21.5847 22.0749 20.4715 22.0749C19.3583 22.0749 18.4556 21.2327 18.4556 20.1801C18.4556 19.1275 19.3583 18.2853 20.4715 18.2853C21.5847 18.2853 22.4875 19.1275 22.4875 20.1801Z" fill="white"/>
</svg>