<svg width="128" height="128" viewBox="0 0 128 128" fill="none" xmlns="http://www.w3.org/2000/svg">
<rect width="128" height="128" rx="64" fill="#AB9FF2"/>
<path d="M110.584 64.9142H101.045C101.045 46.7489 86.343 32 68.2397 32C51.3997 32 37.493 44.7397 35.7412 60.9358C35.447 63.2173 35.3039 65.5537 35.3039 67.9263C35.3039 68.9469 35.3496 69.9561 35.4409 70.9539C36.8607 88.5358 51.3084 102 68.2397 102C76.9142 102 84.8645 98.6093 90.8254 93.0374C92.3739 91.5804 91.8711 89.0519 89.9252 88.2381C88.7216 87.7239 87.3391 88.0659 86.5024 88.9544C81.6445 94.1034 75.232 97.3038 68.3082 97.3038C54.7845 97.3038 43.8426 86.1927 43.8426 72.4981H110.584C112.551 72.4981 114.142 70.8981 114.142 68.9221C114.142 66.9461 112.551 64.9142 110.584 64.9142Z" fill="white"/>
<path d="M67.528 40.3844C56.0321 40.3844 46.7237 49.7248 46.7237 61.2586H88.3324C88.3324 49.7248 79.0239 40.3844 67.528 40.3844Z" fill="white"/>
</svg>