<svg width="32" height="32" viewBox="0 0 32 32" fill="none" xmlns="http://www.w3.org/2000/svg">
<path d="M16 32C24.8366 32 32 24.8366 32 16C32 7.16344 24.8366 0 16 0C7.16344 0 0 7.16344 0 16C0 24.8366 7.16344 32 16 32Z" fill="#4C44C9"/>
<path d="M23.1332 13.7641V11.9108C23.1332 10.8731 22.2958 10.0356 21.2581 10.0356H10.4415C9.40378 10.0356 8.56641 10.8731 8.56641 11.9108V20.9823C8.56641 22.02 9.40378 22.8575 10.4415 22.8575H21.2581C22.2958 22.8575 23.1332 22.02 23.1332 20.9823V16.6499H18.7073V19.8198H12.9923V12.9699H23.1332V13.7641Z" fill="white"/>
</svg>