<svg width="32" height="32" viewBox="0 0 32 32" fill="none" xmlns="http://www.w3.org/2000/svg">
<path d="M16.0001 0C7.1634 0 0 7.1634 0 16.0001C0 24.8368 7.1634 32.0002 16.0001 32.0002C24.8368 32.0002 32.0002 24.8368 32.0002 16.0001C32.0002 7.1634 24.8368 0 16.0001 0Z" fill="url(#paint0_linear_2358_15433)"/>
<path d="M24.2619 16.8152C24.2265 16.7575 24.192 16.6989 24.1566 16.6421C24.1221 16.5835 24.0849 16.5258 24.0485 16.4673C23.2549 15.2891 22.0348 14.4636 20.6419 14.15C21.5414 13.3808 22.0786 12.2378 22.0786 10.9751C22.0786 8.77371 20.2961 7 18.0832 7H10.6286C10.2834 7 10.0029 7.27912 10.0029 7.62431V24.3748C10.0029 24.7209 10.2829 25 10.6286 25H18.6889C21.0893 25 23.0318 23.0681 23.0318 20.6805C23.0318 19.1978 22.0084 17.9043 24.2619 16.8152ZM12.9229 9.92237H18.0841C18.6861 9.92237 19.1787 10.4114 19.1787 11.0125C19.1787 11.6119 18.6861 12.1018 18.0841 12.1018H12.9229V9.92237ZM18.6889 22.0785H12.9229V15.7489H18.6889C20.0254 15.7489 21.1109 16.8307 21.1109 18.1633C21.1109 19.4967 20.0245 22.0785 18.6889 22.0785Z" fill="white"/>
<defs>
<linearGradient id="paint0_linear_2358_15433" x1="16.0001" y1="0" x2="16.0001" y2="32.0002" gradientUnits="userSpaceOnUse">
<stop stop-color="#534BB1"/>
<stop offset="1" stop-color="#551BF9"/>
</linearGradient>
</defs>
</svg>