<svg width="32" height="32" viewBox="0 0 32 32" fill="none" xmlns="http://www.w3.org/2000/svg">
<path d="M16 32C24.8366 32 32 24.8366 32 16C32 7.16344 24.8366 0 16 0C7.16344 0 0 7.16344 0 16C0 24.8366 7.16344 32 16 32Z" fill="black"/>
<path d="M25.9993 16C25.9993 15.6 25.7993 15.2 25.3993 15.2C24.9993 15.2 24.7993 15.6 24.7993 16C24.7993 21.2 20.7993 25.2 15.9993 25.2C11.1993 25.2 7.19934 21.2 7.19934 16C7.19934 10.8 11.1993 6.8 15.9993 6.8C16.3993 6.8 16.7993 6.6 16.7993 6.2C16.7993 5.8 16.3993 5.6 15.9993 5.6C10.3993 5.6 5.99934 10.4 5.99934 16C5.99934 21.6 10.3993 26.4 15.9993 26.4C21.5993 26.4 25.9993 21.6 25.9993 16Z" fill="#0055FF"/>
<path d="M15.9999 22.4C19.5371 22.4 22.3999 19.5372 22.3999 16C22.3999 12.4628 19.5371 9.6 15.9999 9.6C12.4627 9.6 9.59985 12.4628 9.59985 16C9.59985 19.5372 12.4627 22.4 15.9999 22.4Z" fill="#00AAFF"/>
<path d="M15.9999 19.2C17.7673 19.2 19.1999 17.7673 19.1999 16C19.1999 14.2327 17.7673 12.8 15.9999 12.8C14.2326 12.8 12.7999 14.2327 12.7999 16C12.7999 17.7673 14.2326 19.2 15.9999 19.2Z" fill="#00FFAA"/>
<path d="M17.5996 16C17.5996 16.8837 16.8834 17.6 15.9996 17.6C15.1159 17.6 14.3996 16.8837 14.3996 16C14.3996 15.1163 15.1159 14.4 15.9996 14.4C16.8834 14.4 17.5996 15.1163 17.5996 16Z" fill="#88FF00"/>
<path d="M16.7992 16C16.7992 16.4418 16.4411 16.8 15.9992 16.8C15.5574 16.8 15.1992 16.4418 15.1992 16C15.1992 15.5582 15.5574 15.2 15.9992 15.2C16.4411 15.2 16.7992 15.5582 16.7992 16Z" fill="#FFFF00"/>
<path d="M15.9999 16.4C16.2209 16.4 16.3999 16.2209 16.3999 16C16.3999 15.7791 16.2209 15.6 15.9999 15.6C15.779 15.6 15.5999 15.7791 15.5999 16C15.5999 16.2209 15.779 16.4 15.9999 16.4Z" fill="#FF8800"/>
<path d="M16.0004 15.9996C16.0004 15.9996 16.0004 15.9996 16.0004 15.9996C16.0004 15.9996 16.0004 15.9996 16.0004 15.9996C16.0004 15.9996 16.0004 15.9996 16.0004 15.9996C16.0004 15.9996 16.0004 15.9996 16.0004 15.9996Z" fill="#FF0000"/>
</svg>