<svg width="32" height="32" viewBox="0 0 32 32" fill="none" xmlns="http://www.w3.org/2000/svg">
  <circle cx="16" cy="16" r="16" fill="#1C274D"/>
  <path d="M24.0809 16.5196C24.3669 14.5141 23.7727 12.4985 22.4451 10.9635C21.1175 9.42852 19.1867 8.50737 17.1484 8.40077C15.1101 8.29417 13.0763 9.01165 11.5873 10.4154C10.0982 11.8192 9.3022 13.7733 9.42489 15.7793C9.54759 17.7853 10.5819 19.6306 12.2281 20.8515C13.8743 22.0723 15.9853 22.5398 18.0284 22.1344C20.0715 21.729 21.8489 20.4867 22.9123 18.6981" stroke="url(#paint0_linear_2_13)" stroke-width="1.5" stroke-linecap="round" stroke-linejoin="round"/>
  <path d="M24.5095 16.3574C24.8432 14.0459 24.1549 11.7159 22.6109 9.93947C21.0669 8.16304 18.8089 7.10133 16.4387 7.07359C14.0684 7.04586 11.7858 8.05379 10.1986 9.7934C8.61142 11.5331 7.86705 13.8447 8.14176 16.1591C8.41647 18.4735 9.622 20.5729 11.5054 21.9674C13.3889 23.3618 15.7761 23.9308 18.1066 23.5462C20.4371 23.1615 22.498 21.8546 23.8442 19.9174" stroke="url(#paint1_linear_2_13)" stroke-width="1.5" stroke-linecap="round" stroke-linejoin="round"/>
  <path d="M12.1428 14.7197C12.8195 14.7226 13.365 14.1805 13.368 13.5038C13.371 12.8272 12.8288 12.2818 12.1522 12.2788C11.4755 12.2755 10.9301 12.8177 10.9271 13.4944C10.9271 13.4957 10.9271 13.497 10.9271 13.4983C10.9271 14.1724 11.4687 14.7197 12.1428 14.7197" stroke="#00F9BB" stroke-width="1.5" stroke-linecap="round" stroke-linejoin="round"/>
  <path d="M19.6047 19.0161C20.2814 19.0191 20.8269 18.477 20.8299 17.8003C20.8329 17.1237 20.2907 16.5783 19.6141 16.5753C18.9374 16.5719 18.392 17.1141 18.389 17.7908C18.389 17.7921 18.389 17.7934 18.389 17.7947C18.389 18.4688 18.9306 19.0161 19.6047 19.0161Z" stroke="#00F9BB" stroke-width="1.5" stroke-linecap="round" stroke-linejoin="round"/>
  <path d="M19.2856 12.2788C19.9623 12.2818 20.5078 12.8239 20.5107 13.5006C20.5137 14.1772 19.9715 14.7226 19.2949 14.7256C18.6182 14.729 18.0728 14.1868 18.0698 13.5101C18.0698 13.5088 18.0698 13.5075 18.0698 13.5062C18.0698 12.8321 18.6114 12.2848 19.2856 12.2788Z" stroke="#00F9BB" stroke-width="1.5" stroke-linecap="round" stroke-linejoin="round"/>
  <path d="M12.4618 16.5753C13.1385 16.5783 13.684 17.1204 13.687 17.797C13.69 18.4737 13.1478 19.0191 12.4712 19.0221C11.7945 19.0255 11.2491 18.4833 11.2461 17.8066C11.2461 17.8053 11.2461 17.804 11.2461 17.8027C11.2461 17.1286 11.7878 16.5813 12.4618 16.5753Z" stroke="#00F9BB" stroke-width="1.5" stroke-linecap="round" stroke-linejoin="round"/>
  <defs>
    <linearGradient id="paint0_linear_2_13" x1="22.3332" y1="10.3151" x2="9.89149" y2="19.1518" gradientUnits="userSpaceOnUse">
      <stop stop-color="#00F9BB"/>
      <stop offset="1" stop-color="#627EEA"/>
    </linearGradient>
    <linearGradient id="paint1_linear_2_13" x1="23.8203" y1="9.05037" x2="8.5724" y2="20.276" gradientUnits="userSpaceOnUse">
      <stop stop-color="#00F9BB"/>
      <stop offset="1" stop-color="#627EEA"/>
    </linearGradient>
  </defs>
</svg>
