<svg width="128" height="128" viewBox="0 0 128 128" fill="none" xmlns="http://www.w3.org/2000/svg">
<rect width="128" height="128" rx="64" fill="#FC9D0F"/>
<path fill-rule="evenodd" clip-rule="evenodd" d="M63.9998 29.3333C77.0626 29.3333 88.5363 35.1492 95.8158 44.4491C93.594 44.0457 91.3012 43.8315 88.9581 43.8315C75.3518 43.8315 63.3313 51.8468 57.6045 63.3644C54.2726 69.4035 52.4329 76.2818 52.4329 83.5692C52.4329 86.1663 52.6715 88.7092 53.127 91.1706C46.7717 83.7662 42.9181 74.1694 42.9181 63.6666C42.9181 44.8005 52.2213 29.3333 63.9998 29.3333ZM64.0024 97.9999C50.9455 97.9999 39.4761 92.1907 32.1958 82.9C34.4176 83.3037 36.71 83.5178 39.0531 83.5178C52.6588 83.5178 64.6787 75.5033 70.4049 63.9871C73.7363 57.9494 75.5755 51.0724 75.5755 43.786C75.5755 41.1897 75.3369 38.6477 74.8818 36.1869C81.2371 43.5896 85.0902 53.185 85.0902 63.6859C85.0902 82.5328 75.7794 97.9999 64.0024 97.9999Z" fill="white"/>
</svg>