<svg width="128" height="128" viewBox="0 0 128 128" fill="none" xmlns="http://www.w3.org/2000/svg">
<rect width="128" height="128" rx="64" fill="#3B99FC"/>
<path d="M41.4675 48.6073C54.4547 35.9105 75.5453 35.9105 88.5325 48.6073L90.1869 50.2256C91.0274 51.0461 91.0274 52.3837 90.1869 53.2042L83.9359 59.3237C83.5156 59.7339 82.8356 59.7339 82.4153 59.3237L80.0453 57.008C71.1443 48.3079 58.8557 48.3079 49.9547 57.008L47.4139 59.4932C46.9937 59.9034 46.3137 59.9034 45.8934 59.4932L39.6425 53.3737C38.8019 52.5532 38.8019 51.2156 39.6425 50.3951L41.4675 48.6073ZM101.05 60.8413L106.538 66.2223C107.378 67.0428 107.378 68.3804 106.538 69.2009L77.5547 97.6086C76.7141 98.4291 75.3737 98.4291 74.5313 97.6086C74.5313 97.6086 74.5331 97.6068 74.5313 97.6086L54.275 77.7644C54.0649 77.5594 53.7245 77.5594 53.5144 77.7644L33.2638 97.6086C32.4232 98.4291 31.0828 98.4291 30.2404 97.6086C30.2404 97.6086 30.2422 97.6068 30.2404 97.6086L1.26283 69.2009C0.422275 68.3804 0.422275 67.0428 1.26283 66.2223L6.75 60.8413C7.5906 60.0208 8.93097 60.0208 9.77153 60.8413L30.0337 80.6855C30.2438 80.8905 30.5842 80.8905 30.7943 80.6855L51.0431 60.8413C51.8837 60.0208 53.2241 60.0208 54.0665 60.8413C54.0665 60.8413 54.0647 60.8395 54.0665 60.8413L74.3153 80.6855C74.5254 80.8905 74.8658 80.8905 75.0759 80.6855L95.3247 60.8413C96.1653 60.0208 97.5057 60.0208 98.348 60.8413L101.05 60.8413Z" fill="white"/>
</svg>