<svg width="32" height="32" viewBox="0 0 32 32" fill="none" xmlns="http://www.w3.org/2000/svg">
<path d="M16 32C24.8366 32 32 24.8366 32 16C32 7.16344 24.8366 0 16 0C7.16344 0 0 7.16344 0 16C0 24.8366 7.16344 32 16 32Z" fill="#9022FF"/>
<path d="M9.59951 9.60046C9.59951 9.60046 9.59951 15.9977 9.59951 19.1995C9.59951 21.5994 11.1995 23.1994 13.5994 23.1994C15.9993 23.1994 17.5993 21.5994 17.5993 19.1995C17.5993 15.9977 17.5993 9.60046 17.5993 9.60046" stroke="white" stroke-width="2" stroke-linecap="round"/>
<path d="M14.4 9.60046C14.4 9.60046 14.4 15.9977 14.4 19.1995C14.4 21.5994 15.9993 23.1994 18.4 23.1994C20.8007 23.1994 22.4 21.5994 22.4 19.1995C22.4 15.9977 22.4 9.60046 22.4 9.60046" stroke="white" stroke-width="2" stroke-linecap="round"/>
</svg>