<svg width="32" height="32" viewBox="0 0 32 32" fill="none" xmlns="http://www.w3.org/2000/svg">
<path d="M16 32C24.8366 32 32 24.8366 32 16C32 7.16344 24.8366 0 16 0C7.16344 0 0 7.16344 0 16C0 24.8366 7.16344 32 16 32Z" fill="#232323"/>
<path d="M23.9998 10V12.2C23.1998 11.8 22.3998 11.6 21.5998 11.6C20.9998 11.6 20.5998 11.8 20.5998 12.2C20.5998 12.6 20.9998 12.8 21.7998 13C23.1998 13.4 23.9998 14.2 23.9998 15.2C23.9998 16.6 22.9998 17.4 21.1998 17.4C20.1998 17.4 19.1998 17.2 18.1998 16.8V14.6C19.1998 15 19.9998 15.2 20.7998 15.2C21.3998 15.2 21.7998 15 21.7998 14.6C21.7998 14.2 21.3998 14 20.5998 13.8C19.1998 13.4 18.3998 12.6 18.3998 11.6C18.3998 10.2 19.3998 9.4 21.1998 9.4C22.1998 9.4 23.1998 9.6 23.9998 10Z" fill="white"/>
<path d="M16.3998 14.1998L17.7998 9.5998H20.1998L17.5998 16.9998H15.3998L12.7998 9.5998H15.1998L16.3998 14.1998Z" fill="white"/>
<path d="M8 14.2002L9.4 9.60023H11.8L9.2 17.0002H7L4.4 9.60023H6.8L8 14.2002Z" fill="white"/>
<path d="M10.9998 21.7998L9.59978 22.5998H15.9998V20.9998H20.9998L18.9998 18.9998H11.9998L7.59978 23.3998H18.1998L18.9998 21.7998H10.9998Z" fill="white"/>
</svg>