<svg width="200" height="200" viewBox="0 0 200 200" fill="none" xmlns="http://www.w3.org/2000/svg">
<path fill-rule="evenodd" clip-rule="evenodd" d="M96.4023 62.9844C116.371 45.4878 146.783 47.5044 164.28 67.4731C181.776 87.4419 179.76 117.854 159.791 135.35C139.822 152.847 109.41 150.83 91.9139 130.862C74.4174 110.893 76.4341 80.4809 96.4023 62.9844ZM121.092 115.994C131.065 115.994 139.146 107.912 139.146 97.9392C139.146 87.9667 131.065 79.8848 121.092 79.8848C111.12 79.8848 103.037 87.9667 103.037 97.9392C103.037 107.912 111.12 115.994 121.092 115.994Z" fill="url(#paint0_linear_14_4114)"/>
<path fill-rule="evenodd" clip-rule="evenodd" d="M41.0938 45.4712C46.3962 40.7052 55.2123 41.1731 59.9774 46.4771C64.7434 51.7795 64.2755 60.5955 59.0692 65.3606C53.8633 70.1266 45.0489 69.6587 40.2829 64.3548C35.5169 59.0524 35.7913 50.2371 41.0938 45.4712ZM49.7762 59.1099C52.1303 59.1099 54.0462 57.194 54.0462 54.8398C54.0462 52.4857 52.1303 50.5698 49.7762 50.5698C47.422 50.5698 45.5061 52.4857 45.5061 54.8398C45.5061 57.194 47.422 59.1099 49.7762 59.1099Z" fill="url(#paint1_linear_14_4114)"/>
<path fill-rule="evenodd" clip-rule="evenodd" d="M44.0254 130.39C49.3279 125.624 58.144 126.092 62.909 131.396C67.6751 136.698 67.2071 145.514 61.9047 150.28C56.6022 155.046 47.7861 154.578 43.0201 149.274C38.2541 143.972 38.723 135.156 44.0254 130.39ZM52.7078 144.029C55.062 144.029 56.9779 142.113 56.9779 139.759C56.9779 137.404 55.062 135.489 52.7078 135.489C50.3537 135.489 48.4378 137.404 48.4378 139.759C48.4378 142.113 50.3537 144.029 52.7078 144.029Z" fill="url(#paint2_linear_14_4114)"/>
<defs>
<linearGradient id="paint0_linear_14_4114" x1="66.7451" y1="137.033" x2="187.553" y2="59.6505" gradientUnits="userSpaceOnUse">
<stop stop-color="#F29FBF"/>
<stop offset="1" stop-color="#6868FC"/>
</linearGradient>
<linearGradient id="paint1_linear_14_4114" x1="32.5312" y1="62.606" x2="68.0057" y2="41.7062" gradientUnits="userSpaceOnUse">
<stop stop-color="#F29FBF"/>
<stop offset="1" stop-color="#6868FC"/>
</linearGradient>
<linearGradient id="paint2_linear_14_4114" x1="35.4688" y1="147.524" x2="70.9423" y2="126.625" gradientUnits="userSpaceOnUse">
<stop stop-color="#F29FBF"/>
<stop offset="1" stop-color="#6868FC"/>
</linearGradient>
</defs>
</svg>