<svg width="104" height="104" viewBox="0 0 104 104" fill="none" xmlns="http://www.w3.org/2000/svg">
<path fill-rule="evenodd" clip-rule="evenodd" d="M0 51.9996C0 23.2812 23.2812 0 51.9996 0C80.718 0 103.999 23.2812 103.999 51.9996C103.999 80.718 80.718 103.999 51.9996 103.999C23.2812 103.999 0 80.718 0 51.9996ZM44.6865 24.2861C33.2992 25.6621 24.0963 30.7588 17.2316 39.8271C30.4049 30.4736 45.8105 27.2529 63.3428 30.1885C67.8252 31.044 72.165 32.4484 76.2619 34.3607C80.3588 36.273 84.1943 38.6607 87.6686 41.5234C81.7627 30.5303 71.6592 24.2861 57.3568 22.7951C53.4348 22.2979 49.1141 22.5547 44.6865 24.2861ZM16.5195 72.1836C18.3753 73.1807 20.2879 74.0627 22.2574 74.8295C19.4519 69.3703 17.6528 63.5625 16.8604 57.506C16.0679 51.4495 16.3018 45.2961 17.5621 39.346C17.0627 40.3447 16.6223 41.3979 16.2408 42.5078C13.2059 51.0049 13.5928 59.9873 17.4004 69.4561C17.0703 70.3986 16.7402 71.2988 16.5195 72.1836ZM49.6477 79.877C48.4257 79.9316 47.2021 79.9349 45.9784 79.8877C54.5582 80.5635 63.1934 78.8525 71.8839 74.7539C80.5745 70.6553 87.6719 64.9619 93.1787 57.6758C95.5104 54.4623 97.4126 51.0472 98.8854 47.4307C93.5071 63.1553 82.8743 73.5439 66.987 78.5988C61.2832 80.5395 55.4528 81.0115 49.6477 79.877ZM31.4866 77.4414C31.4023 77.3945 31.3173 77.3447 31.2322 77.2939C21.9818 72.1576 14.8731 64.3262 9.90613 53.7998C9.68537 53.2959 9.56449 52.6582 9.54425 51.8867C9.54425 51.8516 9.54473 51.816 9.54579 51.7805C9.56433 49.9297 11.5464 48.9727 13.0708 49.9609C14.2998 50.7754 15.3956 51.6748 16.3581 52.6592C20.2816 56.3818 23.3063 60.9473 25.4323 66.3555C27.5583 71.7637 28.6982 76.5771 28.8521 80.7959C28.9395 81.1875 29.0268 81.5947 29.1142 82.0176C29.1142 82.0176 29.1142 82.0254 29.1142 82.0254C28.9385 82.0293 28.7629 82.0254 28.5872 82.0137C27.8034 82.0482 27.02 82.0654 26.2373 82.0654C24.1621 82.0654 22.0869 81.9102 20.0117 81.5996C24.0508 81.7393 28.0908 80.2354 32.1318 77.0879C32.0508 77.0671 31.9678 77.0506 31.8854 77.0386C31.7533 77.1728 31.6212 77.307 31.4866 77.4414ZM37.395 40.8398C42.2676 39.2324 43.083 42.8945 46.8018 43.9795C50.5205 45.0645 52.852 41.3301 53.812 42.8945C54.772 44.459 56.4893 49.2285 54.292 50.0488C52.0947 50.8691 51.8741 49.9678 48.959 50.9131C46.0438 51.8584 44.8369 54.6875 42.0928 54.2441C39.3486 53.8008 36.5493 50.0488 35.5059 47.293C34.4624 44.5371 35.2793 41.5859 37.395 40.8398ZM47.041 59.5293C47.041 61.0293 48.2607 62.2559 49.7607 62.2559C51.2607 62.2559 52.4873 61.0361 52.4873 59.5361C52.4873 58.0361 51.2676 56.8096 49.7676 56.8096C48.2676 56.8096 47.041 58.0293 47.041 59.5293ZM41.5576 56.8096C43.0576 56.8096 44.2842 58.0293 44.2842 59.5293C44.2842 61.0293 43.0645 62.2559 41.5645 62.2559C40.0645 62.2559 38.8379 61.0361 38.8379 59.5361C38.8379 58.0361 40.0576 56.8096 41.5576 56.8096ZM62.3828 48.6094C63.3828 47.9394 64.9033 48.2256 65.5732 49.2256C66.2432 50.2256 65.957 51.7461 64.957 52.416C63.957 53.086 62.4365 52.7998 61.7666 51.7998C61.0967 50.7998 61.3828 49.2793 62.3828 48.6094ZM75.1201 52.416C76.1201 51.7461 76.4062 50.2256 75.7363 49.2256C75.0664 48.2256 73.5459 47.9395 72.5459 48.6094C71.5459 49.2793 71.2598 50.7998 71.9297 51.7998C72.5996 52.7998 74.1201 53.086 75.1201 52.416Z" fill="url(#paint0_linear_3_132)"/>
<defs>
<linearGradient id="paint0_linear_3_132" x1="43.3329" y1="35.5522" x2="73.5996" y2="100.999" gradientUnits="userSpaceOnUse">
<stop stop-color="#FFAE1F"/>
<stop offset="1" stop-color="#03A5FD"/>
</linearGradient>
</defs>
</svg>