<svg width="256" height="256" viewBox="0 0 256 256" fill="none" xmlns="http://www.w3.org/2000/svg">
<path d="M237.205 130.424C241.298 120.758 233.955 109.451 223.298 111.014C218.242 111.796 214.37 115.668 212.024 120.324C209.195 115.668 205.323 111.796 200.267 110.93C189.694 108.934 181.401 120.241 185.41 129.823C179.054 124.246 171.114 121.242 162.736 121.242C146.724 121.242 133.635 134.262 133.635 150.358C133.635 166.37 146.724 179.474 162.736 179.474C165.646 179.474 168.475 179.04 171.163 178.09C170.814 180.86 170.623 183.713 170.623 186.649C170.623 213.584 192.258 235.303 219.109 235.303C245.959 235.303 267.596 213.584 267.596 186.649C267.594 165.979 255.207 148.024 237.205 130.424Z" fill="white"/>
<path d="M237.205 130.424C241.298 120.758 233.955 109.451 223.298 111.014C218.242 111.796 214.37 115.668 212.024 120.324C209.195 115.668 205.323 111.796 200.267 110.93C189.694 108.934 181.401 120.241 185.41 129.823C179.054 124.246 171.114 121.242 162.736 121.242C146.724 121.242 133.635 134.262 133.635 150.358C133.635 166.37 146.724 179.474 162.736 179.474C165.646 179.474 168.475 179.04 171.163 178.09C170.814 180.86 170.623 183.713 170.623 186.649C170.623 213.584 192.258 235.303 219.109 235.303C245.959 235.303 267.596 213.584 267.596 186.649C267.594 165.979 255.207 148.024 237.205 130.424Z" fill="#FF007A"/>
<path d="M80.1957 55.0092C92.0684 63.3005 94.4318 94.3913 82.4762 125.416C89.3233 123.595 96.9614 122.632 104.982 122.632C120.993 122.632 135.619 126.756 147.175 134.013C146.592 136.116 146.159 138.304 145.876 140.576C134.179 132.301 120.494 127.689 105.481 127.689C97.3611 127.689 89.5227 128.81 82.0766 130.957C78.4526 147.585 70.1781 165.503 58.2222 179.389C46.2683 193.19 31.0118 202.441 15.0024 202.523C-0.922891 202.523 -5.0302 193.19 1.02953 184.796C8.87656 174.165 24.9688 164.506 45.5188 157.624C48.0308 156.753 50.6259 155.882 53.304 155.094C57.0953 138.632 57.8447 122.168 54.9326 106.822C50.7085 85.8699 41.3431 69.4902 28.7631 61.3995L28.4467 61.1515C24.2375 58.1548 21.2421 54.3025 23.4383 47.5366C25.6345 40.7706 36.3738 43.0172 41.3431 44.4566C47.2534 46.0633 54.35 49.6829 61.5467 53.9701C68.7433 58.2573 76.0355 62.3787 80.1957 55.0092Z" fill="white"/>
<path d="M80.1957 55.0092C92.0684 63.3005 94.4318 94.3913 82.4762 125.416C89.3233 123.595 96.9614 122.632 104.982 122.632C120.993 122.632 135.619 126.756 147.175 134.013C146.592 136.116 146.159 138.304 145.876 140.576C134.179 132.301 120.494 127.689 105.481 127.689C97.3611 127.689 89.5227 128.81 82.0766 130.957C78.4526 147.585 70.1781 165.503 58.2222 179.389C46.2683 193.19 31.0118 202.441 15.0024 202.523C-0.922891 202.523 -5.0302 193.19 1.02953 184.796C8.87656 174.165 24.9688 164.506 45.5188 157.624C48.0308 156.753 50.6259 155.882 53.304 155.094C57.0953 138.632 57.8447 122.168 54.9326 106.822C50.7085 85.8699 41.3431 69.4902 28.7631 61.3995L28.4467 61.1515C24.2375 58.1548 21.2421 54.3025 23.4383 47.5366C25.6345 40.7706 36.3738 43.0172 41.3431 44.4566C47.2534 46.0633 54.35 49.6829 61.5467 53.9701C68.7433 58.2573 76.0355 62.3787 80.1957 55.0092Z" fill="#FF007A"/>
<path d="M183.38 37.8258C172.233 33.4555 155.303 41.7083 142.701 57.032C145.778 57.0321 148.889 57.1997 151.966 57.5328C162.071 45.2957 175.335 39.2654 181.65 43.8564C186.138 47.0608 186.389 57.1167 178.825 68.3538C173.461 76.9368 164.679 83.6177 155.22 87.9049C158.382 92.6956 161.545 98.1445 164.423 104.091C177.193 97.4097 189.427 87.3889 197.573 75.0531C209.694 56.9448 194.279 42.1128 183.38 37.8258Z" fill="white"/>
<path d="M183.38 37.8258C172.233 33.4555 155.303 41.7083 142.701 57.032C145.778 57.0321 148.889 57.1997 151.966 57.5328C162.071 45.2957 175.335 39.2654 181.65 43.8564C186.138 47.0608 186.389 57.1167 178.825 68.3538C173.461 76.9368 164.679 83.6177 155.22 87.9049C158.382 92.6956 161.545 98.1445 164.423 104.091C177.193 97.4097 189.427 87.3889 197.573 75.0531C209.694 56.9448 194.279 42.1128 183.38 37.8258Z" fill="#FF007A"/>
<path d="M117.989 37.7432C115.978 32.5395 113.967 27.5854 111.705 23.0456C105.342 10.9745 98.0456 2.91391 90.7534 0.919044C83.9606 -0.909902 73.3043 0.798299 68.4178 16.279C67.5013 18.9562 66.8361 22.8876 66.5202 27.5854C69.3454 27.0526 72.2565 26.7845 75.1944 26.7845C84.1601 26.7845 92.8851 29.0808 100.278 33.2022C108.421 37.7413 115.046 44.1756 119.751 52.1525C119.416 47.1231 118.916 42.342 117.989 37.7432Z" fill="white"/>
<path d="M117.989 37.7432C115.978 32.5395 113.967 27.5854 111.705 23.0456C105.342 10.9745 98.0456 2.91391 90.7534 0.919044C83.9606 -0.909902 73.3043 0.798299 68.4178 16.279C67.5013 18.9562 66.8361 22.8876 66.5202 27.5854C69.3454 27.0526 72.2565 26.7845 75.1944 26.7845C84.1601 26.7845 92.8851 29.0808 100.278 33.2022C108.421 37.7413 115.046 44.1756 119.751 52.1525C119.416 47.1231 118.916 42.342 117.989 37.7432Z" fill="#FF007A"/>
<path d="M42.5942 188.137C42.759 187.889 42.9238 187.638 43.0886 187.389C39.0118 188.802 35.5194 190.298 32.9242 191.835C30.662 193.191 29.7455 194.381 29.5807 195.407C29.4159 196.599 30.5817 197.789 33.4927 198.66C36.4038 199.53 39.3148 198.909 42.0607 197.554C42.5942 194.711 42.7591 191.517 42.5942 188.137Z" fill="#FF007A"/>
<path d="M182.566 61.7723C184.627 57.153 184.793 53.0518 182.814 51.6123C180.835 50.1738 176.417 51.7805 171.873 55.6328C176.582 57.2396 179.992 59.3441 182.566 61.7723Z" fill="#FF007A"/>
<path d="M162.744 143.584C154.469 143.584 147.754 150.276 147.754 158.54C147.754 166.803 154.469 173.496 162.744 173.496C171.019 173.496 177.732 166.803 177.732 158.54C177.732 150.276 171.019 143.584 162.744 143.584Z" fill="white"/>
<path d="M162.744 143.584C154.469 143.584 147.754 150.276 147.754 158.54C147.754 166.803 154.469 173.496 162.744 173.496C171.019 173.496 177.732 166.803 177.732 158.54C177.732 150.276 171.019 143.584 162.744 143.584Z" fill="#FF007A"/>
<path d="M74.7029 54.9761C71.4598 54.9761 68.0935 55.2665 65.0274 55.7992C66.0271 64.2737 68.7514 81.3985 74.7029 102.516C80.6544 123.634 88.0696 138.137 94.021 146.448C96.9973 143.519 99.691 140.339 102.074 136.939C98.1921 129.006 92.3394 115.121 87.6199 97.8159C81.6684 76.6978 79.2757 59.5397 74.7029 54.9761Z" fill="#FF007A"/>
<path d="M228.353 133.907C227.77 133.157 227.188 132.403 226.604 131.65C224.4 136.305 224.901 140.075 228.02 141.513C229.679 142.218 230.596 139.624 232.339 139.375C233.998 139.126 235.823 137.936 236.157 136 C237.024 130.264 230.596 137.772 228.353 133.907Z" fill="#FF007A"/>
<path d="M202.009 134.488C199.682 131.981 197.022 130.957 194.443 131.534C193.029 131.868 192.781 133.889 191.121 133.971C189.463 134.055 187.888 134.305 187.304 136.491C186.806 138.678 192.114 132.942 193.944 136.574C194.944 138.427 194.944 141.364 198.682 141.116C200.592 140.949 203.271 138.929 202.009 134.488Z" fill="#FF007A"/>
</svg>