<svg width="100" height="100" viewBox="0 0 100 100" fill="none" xmlns="http://www.w3.org/2000/svg">
  <circle cx="50" cy="50" r="50" fill="#0052FF"/>
  <path d="M50 85C69.33 85 85 69.33 85 50C85 30.67 69.33 15 50 15C30.67 15 15 30.67 15 50C15 69.33 30.67 85 50 85Z" fill="#0052FF"/>
  <path d="M49.9999 25C36.1929 25 25 36.1929 25 49.9999C25 63.8069 36.1929 74.9998 49.9999 74.9998C63.8069 74.9998 74.9998 63.8069 74.9998 49.9999C74.9998 36.1929 63.8069 25 49.9999 25ZM35.7756 49.9999C35.7756 42.0343 42.0343 35.7756 49.9999 35.7756C57.9655 35.7756 64.2242 42.0343 64.2242 49.9999C64.2242 57.9655 57.9655 64.2242 49.9999 64.2242C42.0343 64.2242 35.7756 57.9655 35.7756 49.9999Z" fill="white"/>
</svg>