<svg width="100" height="100" viewBox="0 0 100 100" fill="none" xmlns="http://www.w3.org/2000/svg">
  <circle cx="50" cy="50" r="50" fill="#000000"/>
  <path d="M28.8755 65.3246C29.4045 64.7955 30.1304 64.4921 30.8867 64.4921H83.6094C84.8391 64.4921 85.4539 65.9596 84.5855 66.8281L71.1245 80.2891C70.5955 80.8181 69.8696 81.1215 69.1133 81.1215H16.3906C15.1609 81.1215 14.5461 79.654 15.4145 78.7855L28.8755 65.3246Z" fill="url(#paint0_linear_0_1)"/>
  <path d="M28.8755 19.7109C29.4176 19.1819 30.1435 18.8785 30.8867 18.8785H83.6094C84.8391 18.8785 85.4539 20.346 84.5855 21.2145L71.1245 34.6754C70.5955 35.2045 69.8696 35.5079 69.1133 35.5079H16.3906C15.1609 35.5079 14.5461 34.0404 15.4145 33.1719L28.8755 19.7109Z" fill="url(#paint1_linear_0_1)"/>
  <path d="M71.1245 42.4323C70.5955 41.9033 69.8696 41.5999 69.1133 41.5999H16.3906C15.1609 41.5999 14.5461 43.0673 15.4145 43.9358L28.8755 57.3968C29.4045 57.9258 30.1304 58.2292 30.8867 58.2292H83.6094C84.8391 58.2292 85.4539 56.7617 84.5855 55.8932L71.1245 42.4323Z" fill="url(#paint2_linear_0_1)"/>
  <defs>
    <linearGradient id="paint0_linear_0_1" x1="16.4541" y1="129.672" x2="138.805" y2="-0.452321" gradientUnits="userSpaceOnUse">
      <stop stop-color="#00FFBD"/>
      <stop offset="0.5625" stop-color="#00E0FF"/>
      <stop offset="1" stop-color="#6A00FF"/>
    </linearGradient>
    <linearGradient id="paint1_linear_0_1" x1="16.4541" y1="129.669" x2="138.805" y2="-0.455596" gradientUnits="userSpaceOnUse">
      <stop stop-color="#00FFBD"/>
      <stop offset="0.5625" stop-color="#00E0FF"/>
      <stop offset="1" stop-color="#6A00FF"/>
    </linearGradient>
    <linearGradient id="paint2_linear_0_1" x1="16.4541" y1="129.672" x2="138.805" y2="-0.452331" gradientUnits="userSpaceOnUse">
      <stop stop-color="#00FFBD"/>
      <stop offset="0.5625" stop-color="#00E0FF"/>
      <stop offset="1" stop-color="#6A00FF"/>
    </linearGradient>
  </defs>
</svg>