<svg xmlns="http://www.w3.org/2000/svg" width="120" height="120" viewBox="0 0 120 120">
  <defs>
    <linearGradient id="baseGradientBg" x1="0%" y1="0%" x2="100%" y2="100%">
      <stop offset="0%" stop-color="#0052FF" stop-opacity="0.2" />
      <stop offset="100%" stop-color="#0052FF" stop-opacity="0.3" />
    </linearGradient>
  </defs>
  <circle cx="60" cy="60" r="58" fill="url(#baseGradientBg)" stroke="#0052FF" stroke-width="2" />
  <g transform="translate(30, 30) scale(2.5)">
    <path fill-rule="evenodd" clip-rule="evenodd" d="M12 24C18.6274 24 24 18.6274 24 12C24 5.37258 18.6274 0 12 0C5.37258 0 0 5.37258 0 12C0 18.6274 5.37258 24 12 24ZM12 22.8C17.9647 22.8 22.8 17.9647 22.8 12C22.8 6.03532 17.9647 1.2 12 1.2C6.03532 1.2 1.2 6.03532 1.2 12C1.2 17.9647 6.03532 22.8 12 22.8Z" fill="#0052FF"/>
    <path fill-rule="evenodd" clip-rule="evenodd" d="M12 21C16.9706 21 21 16.9706 21 12C21 7.02944 16.9706 3 12 3C7.02944 3 3 7.02944 3 12C3 16.9706 7.02944 21 12 21ZM11.76 7.2C8.85707 7.2 6.48 9.57707 6.48 12.48C6.48 15.3829 8.85707 17.76 11.76 17.76C12.9203 17.76 13.9938 17.3829 14.8567 16.74V15.2664L14.8571 15.2667V15.2664C14.0596 16.1042 12.9654 16.6277 11.76 16.6277C9.48193 16.6277 7.62369 14.7695 7.62369 12.4914C7.62369 10.2133 9.48193 8.35507 11.76 8.35507C12.9654 8.35507 14.0596 8.87858 14.8571 9.71636V8.24291C13.9949 7.59716 12.9203 7.2 11.76 7.2Z" fill="#0052FF"/>
  </g>
</svg>