<svg xmlns="http://www.w3.org/2000/svg" width="120" height="120" viewBox="0 0 120 120">
  <defs>
    <linearGradient id="solanaGradientBg" x1="0%" y1="0%" x2="100%" y2="100%">
      <stop offset="0%" stop-color="#9945FF" stop-opacity="0.2" />
      <stop offset="100%" stop-color="#03E1FF" stop-opacity="0.3" />
    </linearGradient>
  </defs>
  <circle cx="60" cy="60" r="58" fill="url(#solanaGradientBg)" stroke="#9945FF" stroke-width="2" />
  <g transform="translate(32, 40) scale(0.14)">
    <path fill="#9945FF" d="M64.6 237.9c2.4-2.4 5.7-3.8 9.2-3.8h320.5c5.8 0 8.7 7 4.6 11.1l-62.7 62.7c-2.4 2.4-5.7 3.8-9.2 3.8H6.5c-5.8 0-8.7-7-4.6-11.1l62.7-62.7z"/>
    <path fill="#03E1FF" d="M64.6 3.8C67.1 1.4 70.4 0 73.8 0h320.5c5.8 0 8.7 7 4.6 11.1l-62.7 62.7c-2.4 2.4-5.7 3.8-9.2 3.8H6.5c-5.8 0-8.7-7-4.6-11.1L64.6 3.8z"/>
    <path fill="#fff" d="M64.6 120.9c2.4-2.4 5.7-3.8 9.2-3.8h320.5c5.8 0 8.7 7 4.6 11.1l-62.7 62.7c-2.4 2.4-5.7 3.8-9.2 3.8H6.5c-5.8 0-8.7-7-4.6-11.1l62.7-62.7z"/>
  </g>
</svg>